%TF.GenerationSoftware,KiCad,Pcbnew,(6.0.2-0)*%
%TF.CreationDate,2022-12-05T13:59:39+01:00*%
%TF.ProjectId,ornament_2022,6f726e61-6d65-46e7-945f-323032322e6b,rev?*%
%TF.SameCoordinates,Original*%
%TF.FileFunction,Soldermask,Bot*%
%TF.FilePolarity,Negative*%
%FSLAX46Y46*%
G04 Gerber Fmt 4.6, Leading zero omitted, Abs format (unit mm)*
G04 Created by KiCad (PCBNEW (6.0.2-0)) date 2022-12-05 13:59:39*
%MOMM*%
%LPD*%
G01*
G04 APERTURE LIST*
G04 Aperture macros list*
%AMRoundRect*
0 Rectangle with rounded corners*
0 $1 Rounding radius*
0 $2 $3 $4 $5 $6 $7 $8 $9 X,Y pos of 4 corners*
0 Add a 4 corners polygon primitive as box body*
4,1,4,$2,$3,$4,$5,$6,$7,$8,$9,$2,$3,0*
0 Add four circle primitives for the rounded corners*
1,1,$1+$1,$2,$3*
1,1,$1+$1,$4,$5*
1,1,$1+$1,$6,$7*
1,1,$1+$1,$8,$9*
0 Add four rect primitives between the rounded corners*
20,1,$1+$1,$2,$3,$4,$5,0*
20,1,$1+$1,$4,$5,$6,$7,0*
20,1,$1+$1,$6,$7,$8,$9,0*
20,1,$1+$1,$8,$9,$2,$3,0*%
G04 Aperture macros list end*
%ADD10C,0.500000*%
%ADD11C,0.200000*%
%ADD12C,0.100000*%
%ADD13C,2.000000*%
%ADD14C,4.000000*%
%ADD15RoundRect,0.250000X-0.350000X-0.450000X0.350000X-0.450000X0.350000X0.450000X-0.350000X0.450000X0*%
%ADD16C,1.700000*%
%ADD17R,2.500000X1.000000*%
%ADD18RoundRect,0.250000X-0.450000X0.350000X-0.450000X-0.350000X0.450000X-0.350000X0.450000X0.350000X0*%
%ADD19RoundRect,0.250000X0.350000X0.450000X-0.350000X0.450000X-0.350000X-0.450000X0.350000X-0.450000X0*%
%ADD20RoundRect,0.250000X-0.337500X-0.475000X0.337500X-0.475000X0.337500X0.475000X-0.337500X0.475000X0*%
%ADD21R,0.400000X0.450000*%
%ADD22R,0.500000X0.450000*%
%ADD23RoundRect,0.250000X0.450000X-0.350000X0.450000X0.350000X-0.450000X0.350000X-0.450000X-0.350000X0*%
%ADD24R,0.900000X1.200000*%
%ADD25RoundRect,0.150000X-0.825000X-0.150000X0.825000X-0.150000X0.825000X0.150000X-0.825000X0.150000X0*%
%ADD26R,2.500000X6.000000*%
%ADD27C,16.000000*%
%ADD28R,1.200000X2.500000*%
%ADD29C,0.800000*%
%ADD30C,0.500000*%
G04 APERTURE END LIST*
D10*
X244538500Y-44577000D02*
X221551500Y-44577000D01*
X221551500Y-44577000D02*
X221551500Y-53213000D01*
X221551500Y-53213000D02*
X244538500Y-53213000D01*
X244538500Y-53213000D02*
X244538500Y-44577000D01*
D11*
X241868809Y-48486142D02*
X241949761Y-48567095D01*
X242192619Y-48648047D01*
X242354523Y-48648047D01*
X242597380Y-48567095D01*
X242759285Y-48405190D01*
X242840238Y-48243285D01*
X242921190Y-47919476D01*
X242921190Y-47676619D01*
X242840238Y-47352809D01*
X242759285Y-47190904D01*
X242597380Y-47029000D01*
X242354523Y-46948047D01*
X242192619Y-46948047D01*
X241949761Y-47029000D01*
X241868809Y-47109952D01*
X241140238Y-48648047D02*
X241140238Y-46948047D01*
X240411666Y-48648047D02*
X240411666Y-47757571D01*
X240492619Y-47595666D01*
X240654523Y-47514714D01*
X240897380Y-47514714D01*
X241059285Y-47595666D01*
X241140238Y-47676619D01*
X239602142Y-48648047D02*
X239602142Y-47514714D01*
X239602142Y-47838523D02*
X239521190Y-47676619D01*
X239440238Y-47595666D01*
X239278333Y-47514714D01*
X239116428Y-47514714D01*
X238549761Y-48648047D02*
X238549761Y-47514714D01*
X238549761Y-46948047D02*
X238630714Y-47029000D01*
X238549761Y-47109952D01*
X238468809Y-47029000D01*
X238549761Y-46948047D01*
X238549761Y-47109952D01*
X237821190Y-48567095D02*
X237659285Y-48648047D01*
X237335476Y-48648047D01*
X237173571Y-48567095D01*
X237092619Y-48405190D01*
X237092619Y-48324238D01*
X237173571Y-48162333D01*
X237335476Y-48081380D01*
X237578333Y-48081380D01*
X237740238Y-48000428D01*
X237821190Y-47838523D01*
X237821190Y-47757571D01*
X237740238Y-47595666D01*
X237578333Y-47514714D01*
X237335476Y-47514714D01*
X237173571Y-47595666D01*
X236606904Y-47514714D02*
X235959285Y-47514714D01*
X236364047Y-46948047D02*
X236364047Y-48405190D01*
X236283095Y-48567095D01*
X236121190Y-48648047D01*
X235959285Y-48648047D01*
X235392619Y-48648047D02*
X235392619Y-47514714D01*
X235392619Y-47676619D02*
X235311666Y-47595666D01*
X235149761Y-47514714D01*
X234906904Y-47514714D01*
X234745000Y-47595666D01*
X234664047Y-47757571D01*
X234664047Y-48648047D01*
X234664047Y-47757571D02*
X234583095Y-47595666D01*
X234421190Y-47514714D01*
X234178333Y-47514714D01*
X234016428Y-47595666D01*
X233935476Y-47757571D01*
X233935476Y-48648047D01*
X232397380Y-48648047D02*
X232397380Y-47757571D01*
X232478333Y-47595666D01*
X232640238Y-47514714D01*
X232964047Y-47514714D01*
X233125952Y-47595666D01*
X232397380Y-48567095D02*
X232559285Y-48648047D01*
X232964047Y-48648047D01*
X233125952Y-48567095D01*
X233206904Y-48405190D01*
X233206904Y-48243285D01*
X233125952Y-48081380D01*
X232964047Y-48000428D01*
X232559285Y-48000428D01*
X232397380Y-47919476D01*
X231668809Y-48567095D02*
X231506904Y-48648047D01*
X231183095Y-48648047D01*
X231021190Y-48567095D01*
X230940238Y-48405190D01*
X230940238Y-48324238D01*
X231021190Y-48162333D01*
X231183095Y-48081380D01*
X231425952Y-48081380D01*
X231587857Y-48000428D01*
X231668809Y-47838523D01*
X231668809Y-47757571D01*
X231587857Y-47595666D01*
X231425952Y-47514714D01*
X231183095Y-47514714D01*
X231021190Y-47595666D01*
X228997380Y-47109952D02*
X228916428Y-47029000D01*
X228754523Y-46948047D01*
X228349761Y-46948047D01*
X228187857Y-47029000D01*
X228106904Y-47109952D01*
X228025952Y-47271857D01*
X228025952Y-47433761D01*
X228106904Y-47676619D01*
X229078333Y-48648047D01*
X228025952Y-48648047D01*
X226973571Y-46948047D02*
X226811666Y-46948047D01*
X226649761Y-47029000D01*
X226568809Y-47109952D01*
X226487857Y-47271857D01*
X226406904Y-47595666D01*
X226406904Y-48000428D01*
X226487857Y-48324238D01*
X226568809Y-48486142D01*
X226649761Y-48567095D01*
X226811666Y-48648047D01*
X226973571Y-48648047D01*
X227135476Y-48567095D01*
X227216428Y-48486142D01*
X227297380Y-48324238D01*
X227378333Y-48000428D01*
X227378333Y-47595666D01*
X227297380Y-47271857D01*
X227216428Y-47109952D01*
X227135476Y-47029000D01*
X226973571Y-46948047D01*
X225759285Y-47109952D02*
X225678333Y-47029000D01*
X225516428Y-46948047D01*
X225111666Y-46948047D01*
X224949761Y-47029000D01*
X224868809Y-47109952D01*
X224787857Y-47271857D01*
X224787857Y-47433761D01*
X224868809Y-47676619D01*
X225840238Y-48648047D01*
X224787857Y-48648047D01*
X224140238Y-47109952D02*
X224059285Y-47029000D01*
X223897380Y-46948047D01*
X223492619Y-46948047D01*
X223330714Y-47029000D01*
X223249761Y-47109952D01*
X223168809Y-47271857D01*
X223168809Y-47433761D01*
X223249761Y-47676619D01*
X224221190Y-48648047D01*
X223168809Y-48648047D01*
D12*
X241283095Y-51204761D02*
X241140238Y-51252380D01*
X240902142Y-51252380D01*
X240806904Y-51204761D01*
X240759285Y-51157142D01*
X240711666Y-51061904D01*
X240711666Y-50966666D01*
X240759285Y-50871428D01*
X240806904Y-50823809D01*
X240902142Y-50776190D01*
X241092619Y-50728571D01*
X241187857Y-50680952D01*
X241235476Y-50633333D01*
X241283095Y-50538095D01*
X241283095Y-50442857D01*
X241235476Y-50347619D01*
X241187857Y-50300000D01*
X241092619Y-50252380D01*
X240854523Y-50252380D01*
X240711666Y-50300000D01*
X239902142Y-51204761D02*
X239997380Y-51252380D01*
X240187857Y-51252380D01*
X240283095Y-51204761D01*
X240330714Y-51109523D01*
X240330714Y-50728571D01*
X240283095Y-50633333D01*
X240187857Y-50585714D01*
X239997380Y-50585714D01*
X239902142Y-50633333D01*
X239854523Y-50728571D01*
X239854523Y-50823809D01*
X240330714Y-50919047D01*
X238997380Y-51204761D02*
X239092619Y-51252380D01*
X239283095Y-51252380D01*
X239378333Y-51204761D01*
X239425952Y-51157142D01*
X239473571Y-51061904D01*
X239473571Y-50776190D01*
X239425952Y-50680952D01*
X239378333Y-50633333D01*
X239283095Y-50585714D01*
X239092619Y-50585714D01*
X238997380Y-50633333D01*
X238425952Y-51252380D02*
X238521190Y-51204761D01*
X238568809Y-51157142D01*
X238616428Y-51061904D01*
X238616428Y-50776190D01*
X238568809Y-50680952D01*
X238521190Y-50633333D01*
X238425952Y-50585714D01*
X238283095Y-50585714D01*
X238187857Y-50633333D01*
X238140238Y-50680952D01*
X238092619Y-50776190D01*
X238092619Y-51061904D01*
X238140238Y-51157142D01*
X238187857Y-51204761D01*
X238283095Y-51252380D01*
X238425952Y-51252380D01*
X237664047Y-50585714D02*
X237664047Y-51252380D01*
X237664047Y-50680952D02*
X237616428Y-50633333D01*
X237521190Y-50585714D01*
X237378333Y-50585714D01*
X237283095Y-50633333D01*
X237235476Y-50728571D01*
X237235476Y-51252380D01*
X236330714Y-51252380D02*
X236330714Y-50252380D01*
X236330714Y-51204761D02*
X236425952Y-51252380D01*
X236616428Y-51252380D01*
X236711666Y-51204761D01*
X236759285Y-51157142D01*
X236806904Y-51061904D01*
X236806904Y-50776190D01*
X236759285Y-50680952D01*
X236711666Y-50633333D01*
X236616428Y-50585714D01*
X236425952Y-50585714D01*
X236330714Y-50633333D01*
X235140238Y-51204761D02*
X234997380Y-51252380D01*
X234759285Y-51252380D01*
X234664047Y-51204761D01*
X234616428Y-51157142D01*
X234568809Y-51061904D01*
X234568809Y-50966666D01*
X234616428Y-50871428D01*
X234664047Y-50823809D01*
X234759285Y-50776190D01*
X234949761Y-50728571D01*
X235045000Y-50680952D01*
X235092619Y-50633333D01*
X235140238Y-50538095D01*
X235140238Y-50442857D01*
X235092619Y-50347619D01*
X235045000Y-50300000D01*
X234949761Y-50252380D01*
X234711666Y-50252380D01*
X234568809Y-50300000D01*
X234283095Y-50585714D02*
X233902142Y-50585714D01*
X234140238Y-50252380D02*
X234140238Y-51109523D01*
X234092619Y-51204761D01*
X233997380Y-51252380D01*
X233902142Y-51252380D01*
X233568809Y-51252380D02*
X233568809Y-50585714D01*
X233568809Y-50776190D02*
X233521190Y-50680952D01*
X233473571Y-50633333D01*
X233378333Y-50585714D01*
X233283095Y-50585714D01*
X232949761Y-51252380D02*
X232949761Y-50585714D01*
X232949761Y-50252380D02*
X232997380Y-50300000D01*
X232949761Y-50347619D01*
X232902142Y-50300000D01*
X232949761Y-50252380D01*
X232949761Y-50347619D01*
X232473571Y-50585714D02*
X232473571Y-51252380D01*
X232473571Y-50680952D02*
X232425952Y-50633333D01*
X232330714Y-50585714D01*
X232187857Y-50585714D01*
X232092619Y-50633333D01*
X232045000Y-50728571D01*
X232045000Y-51252380D01*
X231140238Y-50585714D02*
X231140238Y-51395238D01*
X231187857Y-51490476D01*
X231235476Y-51538095D01*
X231330714Y-51585714D01*
X231473571Y-51585714D01*
X231568809Y-51538095D01*
X231140238Y-51204761D02*
X231235476Y-51252380D01*
X231425952Y-51252380D01*
X231521190Y-51204761D01*
X231568809Y-51157142D01*
X231616428Y-51061904D01*
X231616428Y-50776190D01*
X231568809Y-50680952D01*
X231521190Y-50633333D01*
X231425952Y-50585714D01*
X231235476Y-50585714D01*
X231140238Y-50633333D01*
X229949761Y-51204761D02*
X229806904Y-51252380D01*
X229568809Y-51252380D01*
X229473571Y-51204761D01*
X229425952Y-51157142D01*
X229378333Y-51061904D01*
X229378333Y-50966666D01*
X229425952Y-50871428D01*
X229473571Y-50823809D01*
X229568809Y-50776190D01*
X229759285Y-50728571D01*
X229854523Y-50680952D01*
X229902142Y-50633333D01*
X229949761Y-50538095D01*
X229949761Y-50442857D01*
X229902142Y-50347619D01*
X229854523Y-50300000D01*
X229759285Y-50252380D01*
X229521190Y-50252380D01*
X229378333Y-50300000D01*
X229092619Y-50585714D02*
X228711666Y-50585714D01*
X228949761Y-50252380D02*
X228949761Y-51109523D01*
X228902142Y-51204761D01*
X228806904Y-51252380D01*
X228711666Y-51252380D01*
X227949761Y-50585714D02*
X227949761Y-51252380D01*
X228378333Y-50585714D02*
X228378333Y-51109523D01*
X228330714Y-51204761D01*
X228235476Y-51252380D01*
X228092619Y-51252380D01*
X227997380Y-51204761D01*
X227949761Y-51157142D01*
X227045000Y-51252380D02*
X227045000Y-50252380D01*
X227045000Y-51204761D02*
X227140238Y-51252380D01*
X227330714Y-51252380D01*
X227425952Y-51204761D01*
X227473571Y-51157142D01*
X227521190Y-51061904D01*
X227521190Y-50776190D01*
X227473571Y-50680952D01*
X227425952Y-50633333D01*
X227330714Y-50585714D01*
X227140238Y-50585714D01*
X227045000Y-50633333D01*
X226568809Y-51252380D02*
X226568809Y-50585714D01*
X226568809Y-50252380D02*
X226616428Y-50300000D01*
X226568809Y-50347619D01*
X226521190Y-50300000D01*
X226568809Y-50252380D01*
X226568809Y-50347619D01*
X225949761Y-51252380D02*
X226045000Y-51204761D01*
X226092619Y-51157142D01*
X226140238Y-51061904D01*
X226140238Y-50776190D01*
X226092619Y-50680952D01*
X226045000Y-50633333D01*
X225949761Y-50585714D01*
X225806904Y-50585714D01*
X225711666Y-50633333D01*
X225664047Y-50680952D01*
X225616428Y-50776190D01*
X225616428Y-51061904D01*
X225664047Y-51157142D01*
X225711666Y-51204761D01*
X225806904Y-51252380D01*
X225949761Y-51252380D01*
X225235476Y-51204761D02*
X225140238Y-51252380D01*
X224949761Y-51252380D01*
X224854523Y-51204761D01*
X224806904Y-51109523D01*
X224806904Y-51061904D01*
X224854523Y-50966666D01*
X224949761Y-50919047D01*
X225092619Y-50919047D01*
X225187857Y-50871428D01*
X225235476Y-50776190D01*
X225235476Y-50728571D01*
X225187857Y-50633333D01*
X225092619Y-50585714D01*
X224949761Y-50585714D01*
X224854523Y-50633333D01*
D13*
%TO.C,TP5*%
X208534000Y-68580000D03*
%TD*%
%TO.C,TP8*%
X251301954Y-60325000D03*
%TD*%
%TO.C,TP7*%
X251248826Y-56515000D03*
%TD*%
%TO.C,TP6*%
X251248826Y-64243474D03*
%TD*%
%TO.C,TP2*%
X170180000Y-78105000D03*
%TD*%
D14*
%TO.C,REF\u002A\u002A*%
X210185000Y-36195000D03*
%TD*%
D15*
%TO.C,R2*%
X245650000Y-56515000D03*
X247650000Y-56515000D03*
%TD*%
D16*
%TO.C,J4*%
X206216954Y-57150000D03*
%TD*%
D13*
%TO.C,TP1*%
X215900000Y-53975000D03*
%TD*%
D17*
%TO.C,J2*%
X201930000Y-40640000D03*
X201930000Y-43180000D03*
%TD*%
D18*
%TO.C,R12*%
X198120000Y-51975000D03*
X198120000Y-53975000D03*
%TD*%
D13*
%TO.C,TP4*%
X198120000Y-48260000D03*
%TD*%
D15*
%TO.C,R8*%
X195675000Y-43815000D03*
X193675000Y-43815000D03*
%TD*%
D16*
%TO.C,J1*%
X210820000Y-57150000D03*
%TD*%
D18*
%TO.C,R11*%
X201930000Y-51975000D03*
X201930000Y-53975000D03*
%TD*%
D19*
%TO.C,R10*%
X247745000Y-60325000D03*
X245745000Y-60325000D03*
%TD*%
D13*
%TO.C,TP3*%
X201930000Y-48260000D03*
%TD*%
D20*
%TO.C,C1*%
X207877500Y-52070000D03*
X209952500Y-52070000D03*
%TD*%
D19*
%TO.C,R7*%
X219440000Y-70485000D03*
X217440000Y-70485000D03*
%TD*%
D21*
%TO.C,Q2*%
X227095000Y-79442000D03*
X226295000Y-79442000D03*
D22*
X226695000Y-78292000D03*
%TD*%
D23*
%TO.C,R1*%
X232410000Y-80375000D03*
X232410000Y-78375000D03*
%TD*%
D24*
%TO.C,D1*%
X244730000Y-64135000D03*
X248030000Y-64135000D03*
%TD*%
D16*
%TO.C,J3*%
X210820000Y-66548000D03*
%TD*%
%TO.C,J5*%
X206216954Y-66548000D03*
%TD*%
D25*
%TO.C,U1*%
X207710000Y-50165000D03*
X207710000Y-48895000D03*
X207710000Y-47625000D03*
X207710000Y-46355000D03*
X212660000Y-46355000D03*
X212660000Y-47625000D03*
X212660000Y-48895000D03*
X212660000Y-50165000D03*
%TD*%
D15*
%TO.C,R6*%
X191135000Y-69850000D03*
X193135000Y-69850000D03*
%TD*%
D26*
%TO.C,BT1*%
X219903826Y-87103474D03*
X197403826Y-87103474D03*
D27*
X208653826Y-87103474D03*
%TD*%
D28*
%TO.C,S1*%
X229235000Y-84455000D03*
X231735000Y-84455000D03*
X234235000Y-84455000D03*
X229235000Y-89955000D03*
X231735000Y-89955000D03*
X234235000Y-89955000D03*
%TD*%
D18*
%TO.C,R9*%
X229235000Y-78375000D03*
X229235000Y-80375000D03*
%TD*%
D19*
%TO.C,R4*%
X218440000Y-41275000D03*
X216440000Y-41275000D03*
%TD*%
%TO.C,R3*%
X239760000Y-60960000D03*
X237760000Y-60960000D03*
%TD*%
D15*
%TO.C,R5*%
X171085000Y-52705000D03*
X173085000Y-52705000D03*
%TD*%
D29*
X193040000Y-42545000D03*
X163830000Y-62230000D03*
X236220000Y-83185000D03*
X191770000Y-86995000D03*
X252095000Y-72390000D03*
X181610000Y-79375000D03*
X249555000Y-76835000D03*
X223520000Y-83185000D03*
X167640000Y-67310000D03*
X240665000Y-72390000D03*
X227330000Y-86360000D03*
X246380000Y-73660000D03*
X169545000Y-74295000D03*
X254000000Y-67310000D03*
X237855000Y-78375000D03*
X198755000Y-83185000D03*
X174625000Y-77470000D03*
X188595000Y-81915000D03*
D30*
X240957332Y-60479835D03*
X219710000Y-41910000D03*
X169932123Y-52595738D03*
X189992000Y-71374000D03*
X221161564Y-71369093D03*
M02*
