%TF.GenerationSoftware,KiCad,Pcbnew,(6.0.2-0)*%
%TF.CreationDate,2022-12-05T13:59:40+01:00*%
%TF.ProjectId,ornament_2022,6f726e61-6d65-46e7-945f-323032322e6b,rev?*%
%TF.SameCoordinates,Original*%
%TF.FileFunction,Profile,NP*%
%FSLAX46Y46*%
G04 Gerber Fmt 4.6, Leading zero omitted, Abs format (unit mm)*
G04 Created by KiCad (PCBNEW (6.0.2-0)) date 2022-12-05 13:59:40*
%MOMM*%
%LPD*%
G01*
G04 APERTURE LIST*
%TA.AperFunction,Profile*%
%ADD10C,0.100000*%
%TD*%
%TA.AperFunction,Profile*%
%ADD11C,0.220460*%
%TD*%
G04 APERTURE END LIST*
D10*
X202996377Y-99117879D02*
X200438493Y-98876118D01*
X200438493Y-98876118D02*
X198051231Y-98598506D01*
X198051231Y-98598506D02*
X195805643Y-98279620D01*
X195805643Y-98279620D02*
X193672784Y-97914039D01*
X193672784Y-97914039D02*
X191623707Y-97496342D01*
X191623707Y-97496342D02*
X189629466Y-97021105D01*
X189629466Y-97021105D02*
X187661114Y-96482909D01*
X187661114Y-96482909D02*
X185689706Y-95876330D01*
X185689706Y-95876330D02*
X184386695Y-95439464D01*
X184386695Y-95439464D02*
X183124825Y-94986782D01*
X183124825Y-94986782D02*
X181903730Y-94518080D01*
X181903730Y-94518080D02*
X180723043Y-94033151D01*
X180723043Y-94033151D02*
X179582397Y-93531793D01*
X179582397Y-93531793D02*
X178481425Y-93013798D01*
X178481425Y-93013798D02*
X177419760Y-92478963D01*
X177419760Y-92478963D02*
X176397035Y-91927082D01*
X176397035Y-91927082D02*
X175412883Y-91357951D01*
X175412883Y-91357951D02*
X174466938Y-90771365D01*
X174466938Y-90771365D02*
X173558832Y-90167118D01*
X173558832Y-90167118D02*
X172688198Y-89545005D01*
X172688198Y-89545005D02*
X171854671Y-88904822D01*
X171854671Y-88904822D02*
X171057881Y-88246364D01*
X171057881Y-88246364D02*
X170297464Y-87569426D01*
X170297464Y-87569426D02*
X169573051Y-86873802D01*
X169573051Y-86873802D02*
X168924652Y-86219274D01*
X168924652Y-86219274D02*
X168648105Y-85931876D01*
X168648105Y-85931876D02*
X168398626Y-85664538D01*
X168398626Y-85664538D02*
X168172692Y-85412370D01*
X168172692Y-85412370D02*
X167966777Y-85170485D01*
X167966777Y-85170485D02*
X167777356Y-84933992D01*
X167777356Y-84933992D02*
X167600905Y-84698004D01*
X167600905Y-84698004D02*
X167433899Y-84457632D01*
X167433899Y-84457632D02*
X167272813Y-84207986D01*
X167272813Y-84207986D02*
X167114123Y-83944179D01*
X167114123Y-83944179D02*
X166954303Y-83661322D01*
X166954303Y-83661322D02*
X166789830Y-83354526D01*
X166789830Y-83354526D02*
X166617177Y-83018901D01*
X166617177Y-83018901D02*
X166233236Y-82241615D01*
X166233236Y-82241615D02*
X165980382Y-81712423D01*
X165980382Y-81712423D02*
X165731588Y-81175236D01*
X165731588Y-81175236D02*
X165493223Y-80644923D01*
X165493223Y-80644923D02*
X165271654Y-80136351D01*
X165271654Y-80136351D02*
X165073250Y-79664386D01*
X165073250Y-79664386D02*
X164904378Y-79243897D01*
X164904378Y-79243897D02*
X164771405Y-78889750D01*
X164771405Y-78889750D02*
X164680701Y-78616813D01*
X164680701Y-78616813D02*
X164185938Y-76870115D01*
X164185938Y-76870115D02*
X163756321Y-75181150D01*
X163756321Y-75181150D02*
X163389162Y-73534345D01*
X163389162Y-73534345D02*
X163081770Y-71914127D01*
X163081770Y-71914127D02*
X162831456Y-70304921D01*
X162831456Y-70304921D02*
X162635530Y-68691155D01*
X162635530Y-68691155D02*
X162491304Y-67057254D01*
X162491304Y-67057254D02*
X162396087Y-65387646D01*
X162396087Y-65387646D02*
X162368867Y-64846389D01*
X162368867Y-64846389D02*
X162334318Y-64322568D01*
X162334318Y-64322568D02*
X162293852Y-63828995D01*
X162293852Y-63828995D02*
X162248878Y-63378487D01*
X162248878Y-63378487D02*
X162200809Y-62983857D01*
X162200809Y-62983857D02*
X162151054Y-62657919D01*
X162151054Y-62657919D02*
X162101025Y-62413489D01*
X162101025Y-62413489D02*
X162076348Y-62325844D01*
X162076348Y-62325844D02*
X162052132Y-62263380D01*
X162052132Y-62263380D02*
X162026589Y-62197991D01*
X162026589Y-62197991D02*
X162003247Y-62112147D01*
X162003247Y-62112147D02*
X161982134Y-62006587D01*
X161982134Y-62006587D02*
X161963283Y-61882051D01*
X161963283Y-61882051D02*
X161946722Y-61739278D01*
X161946722Y-61739278D02*
X161932484Y-61579007D01*
X161932484Y-61579007D02*
X161920598Y-61401977D01*
X161920598Y-61401977D02*
X161911096Y-61208929D01*
X161911096Y-61208929D02*
X161899362Y-60777732D01*
X161899362Y-60777732D02*
X161897527Y-60291330D01*
X161897527Y-60291330D02*
X161905836Y-59755639D01*
X161905836Y-59755639D02*
X161924533Y-59176572D01*
X161924533Y-59176572D02*
X161959831Y-58488894D01*
X161959831Y-58488894D02*
X162010347Y-57843524D01*
X162010347Y-57843524D02*
X162078377Y-57234773D01*
X162078377Y-57234773D02*
X162166216Y-56656948D01*
X162166216Y-56656948D02*
X162276163Y-56104360D01*
X162276163Y-56104360D02*
X162410511Y-55571317D01*
X162410511Y-55571317D02*
X162571558Y-55052128D01*
X162571558Y-55052128D02*
X162761601Y-54541102D01*
X162761601Y-54541102D02*
X162982934Y-54032548D01*
X162982934Y-54032548D02*
X163237854Y-53520776D01*
X163237854Y-53520776D02*
X163528657Y-53000094D01*
X163528657Y-53000094D02*
X163857640Y-52464812D01*
X163857640Y-52464812D02*
X164227099Y-51909238D01*
X164227099Y-51909238D02*
X164639329Y-51327681D01*
X164639329Y-51327681D02*
X165096628Y-50714451D01*
X165096628Y-50714451D02*
X165601290Y-50063857D01*
X165601290Y-50063857D02*
X165890964Y-49707492D01*
X165890964Y-49707492D02*
X166224491Y-49316605D01*
X166224491Y-49316605D02*
X166999819Y-48454427D01*
X166999819Y-48454427D02*
X167880706Y-47523643D01*
X167880706Y-47523643D02*
X168820581Y-46570577D01*
X168820581Y-46570577D02*
X169772874Y-45641551D01*
X169772874Y-45641551D02*
X170691016Y-44782886D01*
X170691016Y-44782886D02*
X171528436Y-44040904D01*
X171528436Y-44040904D02*
X171902322Y-43728145D01*
X171902322Y-43728145D02*
X172238565Y-43461927D01*
X172238565Y-43461927D02*
X174428375Y-41917135D01*
X174428375Y-41917135D02*
X176800512Y-40484367D01*
X176800512Y-40484367D02*
X179341730Y-39166244D01*
X179341730Y-39166244D02*
X182038785Y-37965392D01*
X182038785Y-37965392D02*
X184878433Y-36884433D01*
X184878433Y-36884433D02*
X187847428Y-35925990D01*
X187847428Y-35925990D02*
X190932526Y-35092688D01*
X190932526Y-35092688D02*
X194120482Y-34387149D01*
X194120482Y-34387149D02*
X197398053Y-33811998D01*
X197398053Y-33811998D02*
X200751993Y-33369858D01*
X200751993Y-33369858D02*
X204169058Y-33063351D01*
X204169058Y-33063351D02*
X207636003Y-32895103D01*
X207636003Y-32895103D02*
X211139584Y-32867735D01*
X211139584Y-32867735D02*
X214666555Y-32983872D01*
X214666555Y-32983872D02*
X218203674Y-33246137D01*
X218203674Y-33246137D02*
X221737694Y-33657154D01*
X221737694Y-33657154D02*
X224591360Y-34109222D01*
X224591360Y-34109222D02*
X227379386Y-34667378D01*
X227379386Y-34667378D02*
X230092682Y-35326821D01*
X230092682Y-35326821D02*
X232722161Y-36082747D01*
X232722161Y-36082747D02*
X235258733Y-36930355D01*
X235258733Y-36930355D02*
X237693311Y-37864842D01*
X237693311Y-37864842D02*
X240016806Y-38881407D01*
X240016806Y-38881407D02*
X242220131Y-39975247D01*
X242220131Y-39975247D02*
X244294196Y-41141559D01*
X244294196Y-41141559D02*
X246229913Y-42375542D01*
X246229913Y-42375542D02*
X248018195Y-43672393D01*
X248018195Y-43672393D02*
X249649952Y-45027310D01*
X249649952Y-45027310D02*
X251116097Y-46435491D01*
X251116097Y-46435491D02*
X252407541Y-47892133D01*
X252407541Y-47892133D02*
X253515196Y-49392435D01*
X253515196Y-49392435D02*
X254429973Y-50931594D01*
X254429973Y-50931594D02*
X254615670Y-51301834D01*
X254615670Y-51301834D02*
X254812178Y-51722618D01*
X254812178Y-51722618D02*
X255228763Y-52690919D01*
X255228763Y-52690919D02*
X255661995Y-53786693D01*
X255661995Y-53786693D02*
X256094143Y-54960136D01*
X256094143Y-54960136D02*
X256507477Y-56161444D01*
X256507477Y-56161444D02*
X256884263Y-57340813D01*
X256884263Y-57340813D02*
X257206771Y-58448439D01*
X257206771Y-58448439D02*
X257457270Y-59434517D01*
X257457270Y-59434517D02*
X257587547Y-60057439D01*
X257587547Y-60057439D02*
X257697563Y-60698002D01*
X257697563Y-60698002D02*
X257787500Y-61349833D01*
X257787500Y-61349833D02*
X257857542Y-62006557D01*
X257857542Y-62006557D02*
X257907872Y-62661801D01*
X257907872Y-62661801D02*
X257938672Y-63309191D01*
X257938672Y-63309191D02*
X257950125Y-63942352D01*
X257950125Y-63942352D02*
X257942416Y-64554911D01*
X257942416Y-64554911D02*
X257915725Y-65140493D01*
X257915725Y-65140493D02*
X257870238Y-65692725D01*
X257870238Y-65692725D02*
X257806136Y-66205233D01*
X257806136Y-66205233D02*
X257723602Y-66671642D01*
X257723602Y-66671642D02*
X257622820Y-67085579D01*
X257622820Y-67085579D02*
X257503973Y-67440669D01*
X257503973Y-67440669D02*
X257367243Y-67730539D01*
X257367243Y-67730539D02*
X257212814Y-67948814D01*
X257212814Y-67948814D02*
X257189009Y-67976735D01*
X257189009Y-67976735D02*
X257165697Y-68007353D01*
X257165697Y-68007353D02*
X257120531Y-68076776D01*
X257120531Y-68076776D02*
X257077273Y-68157265D01*
X257077273Y-68157265D02*
X257035883Y-68249000D01*
X257035883Y-68249000D02*
X256996317Y-68352163D01*
X256996317Y-68352163D02*
X256958533Y-68466934D01*
X256958533Y-68466934D02*
X256922491Y-68593494D01*
X256922491Y-68593494D02*
X256888148Y-68732025D01*
X256888148Y-68732025D02*
X256855461Y-68882708D01*
X256855461Y-68882708D02*
X256824390Y-69045723D01*
X256824390Y-69045723D02*
X256794891Y-69221251D01*
X256794891Y-69221251D02*
X256766924Y-69409474D01*
X256766924Y-69409474D02*
X256740445Y-69610573D01*
X256740445Y-69610573D02*
X256715414Y-69824728D01*
X256715414Y-69824728D02*
X256691788Y-70052120D01*
X256691788Y-70052120D02*
X256669525Y-70292932D01*
X256669525Y-70292932D02*
X256483823Y-71849181D01*
X256483823Y-71849181D02*
X256201122Y-73385378D01*
X256201122Y-73385378D02*
X255823461Y-74898384D01*
X255823461Y-74898384D02*
X255352878Y-76385061D01*
X255352878Y-76385061D02*
X254791411Y-77842271D01*
X254791411Y-77842271D02*
X254141099Y-79266874D01*
X254141099Y-79266874D02*
X253403982Y-80655733D01*
X253403982Y-80655733D02*
X252582096Y-82005710D01*
X252582096Y-82005710D02*
X251677481Y-83313665D01*
X251677481Y-83313665D02*
X250692176Y-84576460D01*
X250692176Y-84576460D02*
X249628218Y-85790957D01*
X249628218Y-85790957D02*
X248487648Y-86954018D01*
X248487648Y-86954018D02*
X247272502Y-88062504D01*
X247272502Y-88062504D02*
X245984820Y-89113276D01*
X245984820Y-89113276D02*
X244626640Y-90103197D01*
X244626640Y-90103197D02*
X243200001Y-91029128D01*
X243200001Y-91029128D02*
X242883274Y-91219356D01*
X242883274Y-91219356D02*
X242545683Y-91415911D01*
X242545683Y-91415911D02*
X242197630Y-91613125D01*
X242197630Y-91613125D02*
X241849513Y-91805332D01*
X241849513Y-91805332D02*
X241511732Y-91986864D01*
X241511732Y-91986864D02*
X241194688Y-92152055D01*
X241194688Y-92152055D02*
X240908780Y-92295238D01*
X240908780Y-92295238D02*
X240664409Y-92410744D01*
X240664409Y-92410744D02*
X240058609Y-92690156D01*
X240058609Y-92690156D02*
X239198160Y-93093290D01*
X239198160Y-93093290D02*
X237171725Y-94054931D01*
X237171725Y-94054931D02*
X235432691Y-94839816D01*
X235432691Y-94839816D02*
X233623503Y-95564794D01*
X233623503Y-95564794D02*
X231747852Y-96229317D01*
X231747852Y-96229317D02*
X229809432Y-96832839D01*
X229809432Y-96832839D02*
X227811935Y-97374812D01*
X227811935Y-97374812D02*
X225759053Y-97854690D01*
X225759053Y-97854690D02*
X223654478Y-98271925D01*
X223654478Y-98271925D02*
X221501903Y-98625971D01*
X221501903Y-98625971D02*
X219305020Y-98916280D01*
X219305020Y-98916280D02*
X217067522Y-99142306D01*
X217067522Y-99142306D02*
X214793101Y-99303502D01*
X214793101Y-99303502D02*
X212485449Y-99399320D01*
X212485449Y-99399320D02*
X210148259Y-99429214D01*
X210148259Y-99429214D02*
X207785223Y-99392636D01*
X207785223Y-99392636D02*
X205400033Y-99289040D01*
X205400033Y-99289040D02*
X202996382Y-99117879D01*
X202996382Y-99117879D02*
X202996377Y-99117879D01*
X202996377Y-99117879D02*
X202996377Y-99117879D01*
D11*
X214881805Y-64288987D02*
X215664255Y-64129517D01*
X215664255Y-64129517D02*
X216506142Y-63946805D01*
X216506142Y-63946805D02*
X217306342Y-63763398D01*
X217306342Y-63763398D02*
X217963728Y-63601845D01*
X217963728Y-63601845D02*
X218269825Y-63515872D01*
X218269825Y-63515872D02*
X218608559Y-63409005D01*
X218608559Y-63409005D02*
X219355022Y-63145324D01*
X219355022Y-63145324D02*
X220145292Y-62836279D01*
X220145292Y-62836279D02*
X220921545Y-62507342D01*
X220921545Y-62507342D02*
X221625955Y-62183988D01*
X221625955Y-62183988D02*
X222200698Y-61891691D01*
X222200698Y-61891691D02*
X222421374Y-61765149D01*
X222421374Y-61765149D02*
X222587949Y-61655925D01*
X222587949Y-61655925D02*
X222693194Y-61567202D01*
X222693194Y-61567202D02*
X222720559Y-61531523D01*
X222720559Y-61531523D02*
X222729882Y-61502164D01*
X222729882Y-61502164D02*
X222724698Y-61477574D01*
X222724698Y-61477574D02*
X222709411Y-61449364D01*
X222709411Y-61449364D02*
X222684418Y-61417735D01*
X222684418Y-61417735D02*
X222650117Y-61382883D01*
X222650117Y-61382883D02*
X222555183Y-61304307D01*
X222555183Y-61304307D02*
X222427790Y-61215223D01*
X222427790Y-61215223D02*
X222271118Y-61117216D01*
X222271118Y-61117216D02*
X222088348Y-61011875D01*
X222088348Y-61011875D02*
X221882662Y-60900784D01*
X221882662Y-60900784D02*
X221657242Y-60785530D01*
X221657242Y-60785530D02*
X221415267Y-60667701D01*
X221415267Y-60667701D02*
X221159919Y-60548881D01*
X221159919Y-60548881D02*
X220894380Y-60430658D01*
X220894380Y-60430658D02*
X220621831Y-60314617D01*
X220621831Y-60314617D02*
X220345452Y-60202346D01*
X220345452Y-60202346D02*
X220068425Y-60095431D01*
X220068425Y-60095431D02*
X219793930Y-59995458D01*
X219793930Y-59995458D02*
X219525150Y-59904014D01*
X219525150Y-59904014D02*
X218871727Y-59710251D01*
X218871727Y-59710251D02*
X218146386Y-59531262D01*
X218146386Y-59531262D02*
X217359118Y-59367742D01*
X217359118Y-59367742D02*
X216519909Y-59220384D01*
X216519909Y-59220384D02*
X215638749Y-59089885D01*
X215638749Y-59089885D02*
X214725626Y-58976938D01*
X214725626Y-58976938D02*
X212843444Y-58806482D01*
X212843444Y-58806482D02*
X210953272Y-58714571D01*
X210953272Y-58714571D02*
X210030161Y-58699808D01*
X210030161Y-58699808D02*
X209135017Y-58706766D01*
X209135017Y-58706766D02*
X208277829Y-58736139D01*
X208277829Y-58736139D02*
X207468586Y-58788622D01*
X207468586Y-58788622D02*
X206717276Y-58864910D01*
X206717276Y-58864910D02*
X206033887Y-58965698D01*
X206033887Y-58965698D02*
X205065806Y-59156185D01*
X205065806Y-59156185D02*
X204044120Y-59395564D01*
X204044120Y-59395564D02*
X202991101Y-59676870D01*
X202991101Y-59676870D02*
X201929017Y-59993132D01*
X201929017Y-59993132D02*
X200880139Y-60337383D01*
X200880139Y-60337383D02*
X199866737Y-60702655D01*
X199866737Y-60702655D02*
X198911080Y-61081979D01*
X198911080Y-61081979D02*
X198035439Y-61468388D01*
X198035439Y-61468388D02*
X196381792Y-62242342D01*
X196381792Y-62242342D02*
X197484223Y-62756458D01*
X197484223Y-62756458D02*
X197781332Y-62886193D01*
X197781332Y-62886193D02*
X198124106Y-63020326D01*
X198124106Y-63020326D02*
X198925554Y-63296417D01*
X198925554Y-63296417D02*
X199846377Y-63573998D01*
X199846377Y-63573998D02*
X200844382Y-63842335D01*
X200844382Y-63842335D02*
X201877378Y-64090694D01*
X201877378Y-64090694D02*
X202903174Y-64308342D01*
X202903174Y-64308342D02*
X203879578Y-64484546D01*
X203879578Y-64484546D02*
X204336073Y-64553751D01*
X204336073Y-64553751D02*
X204764398Y-64608570D01*
X204764398Y-64608570D02*
X205797865Y-64690396D01*
X205797865Y-64690396D02*
X207053651Y-64732493D01*
X207053651Y-64732493D02*
X208453626Y-64737329D01*
X208453626Y-64737329D02*
X209919661Y-64707374D01*
X209919661Y-64707374D02*
X211373625Y-64645093D01*
X211373625Y-64645093D02*
X212737390Y-64552956D01*
X212737390Y-64552956D02*
X213932825Y-64433431D01*
X213932825Y-64433431D02*
X214443003Y-64364168D01*
X214443003Y-64364168D02*
X214881800Y-64288984D01*
X214881800Y-64288984D02*
X214881805Y-64288987D01*
X214881805Y-64288987D02*
X214881805Y-64288987D01*
M02*
