M48
; DRILL file {KiCad (6.0.2-0)} date 2022 December 09, Friday 19:40:23
; FORMAT={-:-/ absolute / metric / decimal}
; #@! TF.CreationDate,2022-12-09T19:40:23+01:00
; #@! TF.GenerationSoftware,Kicad,Pcbnew,(6.0.2-0)
; #@! TF.FileFunction,Plated,1,2,PTH
FMAT,2
METRIC
; #@! TA.AperFunction,Plated,PTH,ViaDrill
T1C0.300
; #@! TA.AperFunction,Plated,PTH,ViaDrill
T2C0.400
; #@! TA.AperFunction,Plated,PTH,ComponentDrill
T3C1.000
; #@! TA.AperFunction,Plated,PTH,ComponentDrill
T4C3.000
%
G90
G05
T1
X169.932Y-52.596
X189.992Y-71.374
X219.71Y-41.91
X221.162Y-71.369
X240.957Y-60.48
T2
X163.83Y-62.23
X167.64Y-67.31
X169.545Y-74.295
X174.625Y-77.47
X181.61Y-79.375
X188.595Y-81.915
X191.77Y-86.995
X193.04Y-42.545
X198.755Y-83.185
X223.52Y-83.185
X227.33Y-86.36
X236.22Y-83.185
X237.855Y-78.375
X240.665Y-72.39
X246.38Y-73.66
X249.555Y-76.835
X252.095Y-72.39
X254.0Y-67.31
T3
X206.217Y-57.15
X206.217Y-66.548
X210.82Y-57.15
X210.82Y-66.548
T4
X210.185Y-36.195
T0
M30
