%TF.GenerationSoftware,KiCad,Pcbnew,(6.0.2-0)*%
%TF.CreationDate,2022-12-09T19:44:04+01:00*%
%TF.ProjectId,ornament_2022,6f726e61-6d65-46e7-945f-323032322e6b,rev?*%
%TF.SameCoordinates,Original*%
%TF.FileFunction,Paste,Bot*%
%TF.FilePolarity,Positive*%
%FSLAX46Y46*%
G04 Gerber Fmt 4.6, Leading zero omitted, Abs format (unit mm)*
G04 Created by KiCad (PCBNEW (6.0.2-0)) date 2022-12-09 19:44:04*
%MOMM*%
%LPD*%
G01*
G04 APERTURE LIST*
G04 Aperture macros list*
%AMRoundRect*
0 Rectangle with rounded corners*
0 $1 Rounding radius*
0 $2 $3 $4 $5 $6 $7 $8 $9 X,Y pos of 4 corners*
0 Add a 4 corners polygon primitive as box body*
4,1,4,$2,$3,$4,$5,$6,$7,$8,$9,$2,$3,0*
0 Add four circle primitives for the rounded corners*
1,1,$1+$1,$2,$3*
1,1,$1+$1,$4,$5*
1,1,$1+$1,$6,$7*
1,1,$1+$1,$8,$9*
0 Add four rect primitives between the rounded corners*
20,1,$1+$1,$2,$3,$4,$5,0*
20,1,$1+$1,$4,$5,$6,$7,0*
20,1,$1+$1,$6,$7,$8,$9,0*
20,1,$1+$1,$8,$9,$2,$3,0*%
G04 Aperture macros list end*
%ADD10RoundRect,0.250000X-0.350000X-0.450000X0.350000X-0.450000X0.350000X0.450000X-0.350000X0.450000X0*%
%ADD11R,2.500000X1.000000*%
%ADD12RoundRect,0.250000X-0.450000X0.350000X-0.450000X-0.350000X0.450000X-0.350000X0.450000X0.350000X0*%
%ADD13RoundRect,0.250000X0.350000X0.450000X-0.350000X0.450000X-0.350000X-0.450000X0.350000X-0.450000X0*%
%ADD14RoundRect,0.250000X-0.337500X-0.475000X0.337500X-0.475000X0.337500X0.475000X-0.337500X0.475000X0*%
%ADD15R,0.400000X0.450000*%
%ADD16R,0.500000X0.450000*%
%ADD17RoundRect,0.250000X0.450000X-0.350000X0.450000X0.350000X-0.450000X0.350000X-0.450000X-0.350000X0*%
%ADD18R,0.900000X1.200000*%
%ADD19RoundRect,0.150000X-0.825000X-0.150000X0.825000X-0.150000X0.825000X0.150000X-0.825000X0.150000X0*%
%ADD20R,2.500000X6.000000*%
%ADD21R,1.200000X2.500000*%
G04 APERTURE END LIST*
D10*
%TO.C,R2*%
X245650000Y-56515000D03*
X247650000Y-56515000D03*
%TD*%
D11*
%TO.C,J2*%
X201930000Y-43180000D03*
X201930000Y-40640000D03*
%TD*%
D12*
%TO.C,R12*%
X198120000Y-51975000D03*
X198120000Y-53975000D03*
%TD*%
D10*
%TO.C,R8*%
X193675000Y-43815000D03*
X195675000Y-43815000D03*
%TD*%
D12*
%TO.C,R11*%
X201930000Y-51975000D03*
X201930000Y-53975000D03*
%TD*%
D13*
%TO.C,R10*%
X247745000Y-60325000D03*
X245745000Y-60325000D03*
%TD*%
D14*
%TO.C,C1*%
X207877500Y-52070000D03*
X209952500Y-52070000D03*
%TD*%
D13*
%TO.C,R7*%
X219440000Y-70485000D03*
X217440000Y-70485000D03*
%TD*%
D15*
%TO.C,Q2*%
X227095000Y-79442000D03*
X226295000Y-79442000D03*
D16*
X226695000Y-78292000D03*
%TD*%
D17*
%TO.C,R1*%
X232410000Y-80375000D03*
X232410000Y-78375000D03*
%TD*%
D18*
%TO.C,D1*%
X244730000Y-64135000D03*
X248030000Y-64135000D03*
%TD*%
D19*
%TO.C,U1*%
X207710000Y-50165000D03*
X207710000Y-48895000D03*
X207710000Y-47625000D03*
X207710000Y-46355000D03*
X212660000Y-46355000D03*
X212660000Y-47625000D03*
X212660000Y-48895000D03*
X212660000Y-50165000D03*
%TD*%
D10*
%TO.C,R6*%
X191135000Y-69850000D03*
X193135000Y-69850000D03*
%TD*%
D20*
%TO.C,BT1*%
X219903826Y-87103474D03*
X197403826Y-87103474D03*
%TD*%
D21*
%TO.C,S1*%
X229235000Y-84455000D03*
X231735000Y-84455000D03*
X234235000Y-84455000D03*
X229235000Y-89955000D03*
X231735000Y-89955000D03*
X234235000Y-89955000D03*
%TD*%
D12*
%TO.C,R9*%
X229235000Y-78375000D03*
X229235000Y-80375000D03*
%TD*%
D13*
%TO.C,R4*%
X218440000Y-41275000D03*
X216440000Y-41275000D03*
%TD*%
%TO.C,R3*%
X239760000Y-60960000D03*
X237760000Y-60960000D03*
%TD*%
D10*
%TO.C,R5*%
X171085000Y-52705000D03*
X173085000Y-52705000D03*
%TD*%
M02*
