%FSLAX45Y45*%
G04 Gerber Fmt 4.5, Leading zero omitted, Abs format (unit mm)*
G04 Created by KiCad (PCBNEW (6.0.2-0)) date 2022-12-09 19:40:24*
%MOMM*%
%LPD*%
G01*
G04 APERTURE LIST*
%TA.AperFunction,Profile*%
%ADD10C,0.100000*%
%TD*%
%TA.AperFunction,Profile*%
%ADD11C,0.220460*%
%TD*%
%ADD12C,0.200000*%
%ADD13C,0.030000*%
%ADD14C,0.040000*%
%ADD15C,0.100000*%
%ADD16C,0.300000*%
G04 APERTURE END LIST*
D10*
X20299638Y-9911788D02*
X20043849Y-9887612D01*
X20043849Y-9887612D02*
X19805123Y-9859851D01*
X19805123Y-9859851D02*
X19580564Y-9827962D01*
X19580564Y-9827962D02*
X19367278Y-9791404D01*
X19367278Y-9791404D02*
X19162371Y-9749634D01*
X19162371Y-9749634D02*
X18962947Y-9702111D01*
X18962947Y-9702111D02*
X18766111Y-9648291D01*
X18766111Y-9648291D02*
X18568971Y-9587633D01*
X18568971Y-9587633D02*
X18438670Y-9543946D01*
X18438670Y-9543946D02*
X18312483Y-9498678D01*
X18312483Y-9498678D02*
X18190373Y-9451808D01*
X18190373Y-9451808D02*
X18072304Y-9403315D01*
X18072304Y-9403315D02*
X17958240Y-9353179D01*
X17958240Y-9353179D02*
X17848143Y-9301380D01*
X17848143Y-9301380D02*
X17741976Y-9247896D01*
X17741976Y-9247896D02*
X17639704Y-9192708D01*
X17639704Y-9192708D02*
X17541288Y-9135795D01*
X17541288Y-9135795D02*
X17446694Y-9077137D01*
X17446694Y-9077137D02*
X17355883Y-9016712D01*
X17355883Y-9016712D02*
X17268820Y-8954501D01*
X17268820Y-8954501D02*
X17185467Y-8890482D01*
X17185467Y-8890482D02*
X17105788Y-8824636D01*
X17105788Y-8824636D02*
X17029746Y-8756943D01*
X17029746Y-8756943D02*
X16957305Y-8687380D01*
X16957305Y-8687380D02*
X16892465Y-8621927D01*
X16892465Y-8621927D02*
X16864811Y-8593188D01*
X16864811Y-8593188D02*
X16839863Y-8566454D01*
X16839863Y-8566454D02*
X16817269Y-8541237D01*
X16817269Y-8541237D02*
X16796678Y-8517049D01*
X16796678Y-8517049D02*
X16777736Y-8493399D01*
X16777736Y-8493399D02*
X16760090Y-8469800D01*
X16760090Y-8469800D02*
X16743390Y-8445763D01*
X16743390Y-8445763D02*
X16727281Y-8420799D01*
X16727281Y-8420799D02*
X16711412Y-8394418D01*
X16711412Y-8394418D02*
X16695430Y-8366132D01*
X16695430Y-8366132D02*
X16678983Y-8335453D01*
X16678983Y-8335453D02*
X16661718Y-8301890D01*
X16661718Y-8301890D02*
X16623324Y-8224161D01*
X16623324Y-8224161D02*
X16598038Y-8171242D01*
X16598038Y-8171242D02*
X16573159Y-8117524D01*
X16573159Y-8117524D02*
X16549322Y-8064492D01*
X16549322Y-8064492D02*
X16527165Y-8013635D01*
X16527165Y-8013635D02*
X16507325Y-7966439D01*
X16507325Y-7966439D02*
X16490438Y-7924390D01*
X16490438Y-7924390D02*
X16477140Y-7888975D01*
X16477140Y-7888975D02*
X16468070Y-7861681D01*
X16468070Y-7861681D02*
X16418594Y-7687011D01*
X16418594Y-7687011D02*
X16375632Y-7518115D01*
X16375632Y-7518115D02*
X16338916Y-7353434D01*
X16338916Y-7353434D02*
X16308177Y-7191413D01*
X16308177Y-7191413D02*
X16283146Y-7030492D01*
X16283146Y-7030492D02*
X16263553Y-6869115D01*
X16263553Y-6869115D02*
X16249130Y-6705725D01*
X16249130Y-6705725D02*
X16239609Y-6538765D01*
X16239609Y-6538765D02*
X16236887Y-6484639D01*
X16236887Y-6484639D02*
X16233432Y-6432257D01*
X16233432Y-6432257D02*
X16229385Y-6382899D01*
X16229385Y-6382899D02*
X16224888Y-6337849D01*
X16224888Y-6337849D02*
X16220081Y-6298386D01*
X16220081Y-6298386D02*
X16215105Y-6265792D01*
X16215105Y-6265792D02*
X16210102Y-6241349D01*
X16210102Y-6241349D02*
X16207635Y-6232584D01*
X16207635Y-6232584D02*
X16205213Y-6226338D01*
X16205213Y-6226338D02*
X16202659Y-6219799D01*
X16202659Y-6219799D02*
X16200325Y-6211215D01*
X16200325Y-6211215D02*
X16198213Y-6200659D01*
X16198213Y-6200659D02*
X16196328Y-6188205D01*
X16196328Y-6188205D02*
X16194672Y-6173928D01*
X16194672Y-6173928D02*
X16193248Y-6157901D01*
X16193248Y-6157901D02*
X16192060Y-6140198D01*
X16192060Y-6140198D02*
X16191110Y-6120893D01*
X16191110Y-6120893D02*
X16189936Y-6077773D01*
X16189936Y-6077773D02*
X16189753Y-6029133D01*
X16189753Y-6029133D02*
X16190584Y-5975564D01*
X16190584Y-5975564D02*
X16192453Y-5917657D01*
X16192453Y-5917657D02*
X16195983Y-5848889D01*
X16195983Y-5848889D02*
X16201035Y-5784352D01*
X16201035Y-5784352D02*
X16207838Y-5723477D01*
X16207838Y-5723477D02*
X16216622Y-5665695D01*
X16216622Y-5665695D02*
X16227616Y-5610436D01*
X16227616Y-5610436D02*
X16241051Y-5557132D01*
X16241051Y-5557132D02*
X16257156Y-5505213D01*
X16257156Y-5505213D02*
X16276160Y-5454110D01*
X16276160Y-5454110D02*
X16298293Y-5403255D01*
X16298293Y-5403255D02*
X16323785Y-5352078D01*
X16323785Y-5352078D02*
X16352866Y-5300009D01*
X16352866Y-5300009D02*
X16385764Y-5246481D01*
X16385764Y-5246481D02*
X16422710Y-5190924D01*
X16422710Y-5190924D02*
X16463933Y-5132768D01*
X16463933Y-5132768D02*
X16509663Y-5071445D01*
X16509663Y-5071445D02*
X16560129Y-5006386D01*
X16560129Y-5006386D02*
X16589096Y-4970749D01*
X16589096Y-4970749D02*
X16622449Y-4931661D01*
X16622449Y-4931661D02*
X16699982Y-4845443D01*
X16699982Y-4845443D02*
X16788071Y-4752364D01*
X16788071Y-4752364D02*
X16882058Y-4657058D01*
X16882058Y-4657058D02*
X16977287Y-4564155D01*
X16977287Y-4564155D02*
X17069102Y-4478289D01*
X17069102Y-4478289D02*
X17152844Y-4404090D01*
X17152844Y-4404090D02*
X17190232Y-4372815D01*
X17190232Y-4372815D02*
X17223857Y-4346193D01*
X17223857Y-4346193D02*
X17442838Y-4191713D01*
X17442838Y-4191713D02*
X17680051Y-4048437D01*
X17680051Y-4048437D02*
X17934173Y-3916624D01*
X17934173Y-3916624D02*
X18203879Y-3796539D01*
X18203879Y-3796539D02*
X18487843Y-3688443D01*
X18487843Y-3688443D02*
X18784743Y-3592599D01*
X18784743Y-3592599D02*
X19093253Y-3509269D01*
X19093253Y-3509269D02*
X19412048Y-3438715D01*
X19412048Y-3438715D02*
X19739805Y-3381200D01*
X19739805Y-3381200D02*
X20075199Y-3336986D01*
X20075199Y-3336986D02*
X20416906Y-3306335D01*
X20416906Y-3306335D02*
X20763600Y-3289510D01*
X20763600Y-3289510D02*
X21113958Y-3286773D01*
X21113958Y-3286773D02*
X21466656Y-3298387D01*
X21466656Y-3298387D02*
X21820367Y-3324614D01*
X21820367Y-3324614D02*
X22173769Y-3365715D01*
X22173769Y-3365715D02*
X22459136Y-3410922D01*
X22459136Y-3410922D02*
X22737939Y-3466738D01*
X22737939Y-3466738D02*
X23009268Y-3532682D01*
X23009268Y-3532682D02*
X23272216Y-3608275D01*
X23272216Y-3608275D02*
X23525873Y-3693035D01*
X23525873Y-3693035D02*
X23769331Y-3786484D01*
X23769331Y-3786484D02*
X24001681Y-3888141D01*
X24001681Y-3888141D02*
X24222013Y-3997525D01*
X24222013Y-3997525D02*
X24429420Y-4114156D01*
X24429420Y-4114156D02*
X24622991Y-4237554D01*
X24622991Y-4237554D02*
X24801819Y-4367239D01*
X24801819Y-4367239D02*
X24964995Y-4502731D01*
X24964995Y-4502731D02*
X25111610Y-4643549D01*
X25111610Y-4643549D02*
X25240754Y-4789213D01*
X25240754Y-4789213D02*
X25351520Y-4939244D01*
X25351520Y-4939244D02*
X25442997Y-5093159D01*
X25442997Y-5093159D02*
X25461567Y-5130183D01*
X25461567Y-5130183D02*
X25481218Y-5172262D01*
X25481218Y-5172262D02*
X25522876Y-5269092D01*
X25522876Y-5269092D02*
X25566199Y-5378669D01*
X25566199Y-5378669D02*
X25609414Y-5496014D01*
X25609414Y-5496014D02*
X25650748Y-5616144D01*
X25650748Y-5616144D02*
X25688426Y-5734081D01*
X25688426Y-5734081D02*
X25720677Y-5844844D01*
X25720677Y-5844844D02*
X25745727Y-5943452D01*
X25745727Y-5943452D02*
X25758755Y-6005744D01*
X25758755Y-6005744D02*
X25769756Y-6069800D01*
X25769756Y-6069800D02*
X25778750Y-6134983D01*
X25778750Y-6134983D02*
X25785754Y-6200656D01*
X25785754Y-6200656D02*
X25790787Y-6266180D01*
X25790787Y-6266180D02*
X25793867Y-6330919D01*
X25793867Y-6330919D02*
X25795012Y-6394235D01*
X25795012Y-6394235D02*
X25794242Y-6455491D01*
X25794242Y-6455491D02*
X25791572Y-6514049D01*
X25791572Y-6514049D02*
X25787024Y-6569272D01*
X25787024Y-6569272D02*
X25780614Y-6620523D01*
X25780614Y-6620523D02*
X25772360Y-6667164D01*
X25772360Y-6667164D02*
X25762282Y-6708558D01*
X25762282Y-6708558D02*
X25750397Y-6744067D01*
X25750397Y-6744067D02*
X25736724Y-6773054D01*
X25736724Y-6773054D02*
X25721281Y-6794881D01*
X25721281Y-6794881D02*
X25718901Y-6797673D01*
X25718901Y-6797673D02*
X25716570Y-6800735D01*
X25716570Y-6800735D02*
X25712053Y-6807678D01*
X25712053Y-6807678D02*
X25707727Y-6815726D01*
X25707727Y-6815726D02*
X25703588Y-6824900D01*
X25703588Y-6824900D02*
X25699632Y-6835216D01*
X25699632Y-6835216D02*
X25695853Y-6846693D01*
X25695853Y-6846693D02*
X25692249Y-6859349D01*
X25692249Y-6859349D02*
X25688815Y-6873202D01*
X25688815Y-6873202D02*
X25685546Y-6888271D01*
X25685546Y-6888271D02*
X25682439Y-6904572D01*
X25682439Y-6904572D02*
X25679489Y-6922125D01*
X25679489Y-6922125D02*
X25676692Y-6940947D01*
X25676692Y-6940947D02*
X25674044Y-6961057D01*
X25674044Y-6961057D02*
X25671541Y-6982473D01*
X25671541Y-6982473D02*
X25669179Y-7005212D01*
X25669179Y-7005212D02*
X25666952Y-7029293D01*
X25666952Y-7029293D02*
X25648382Y-7184918D01*
X25648382Y-7184918D02*
X25620112Y-7338538D01*
X25620112Y-7338538D02*
X25582346Y-7489838D01*
X25582346Y-7489838D02*
X25535288Y-7638506D01*
X25535288Y-7638506D02*
X25479141Y-7784227D01*
X25479141Y-7784227D02*
X25414110Y-7926687D01*
X25414110Y-7926687D02*
X25340398Y-8065573D01*
X25340398Y-8065573D02*
X25258210Y-8200571D01*
X25258210Y-8200571D02*
X25167748Y-8331366D01*
X25167748Y-8331366D02*
X25069218Y-8457646D01*
X25069218Y-8457646D02*
X24962822Y-8579096D01*
X24962822Y-8579096D02*
X24848765Y-8695402D01*
X24848765Y-8695402D02*
X24727250Y-8806250D01*
X24727250Y-8806250D02*
X24598482Y-8911328D01*
X24598482Y-8911328D02*
X24462664Y-9010320D01*
X24462664Y-9010320D02*
X24320000Y-9102913D01*
X24320000Y-9102913D02*
X24288327Y-9121936D01*
X24288327Y-9121936D02*
X24254568Y-9141591D01*
X24254568Y-9141591D02*
X24219763Y-9161313D01*
X24219763Y-9161313D02*
X24184951Y-9180533D01*
X24184951Y-9180533D02*
X24151173Y-9198686D01*
X24151173Y-9198686D02*
X24119469Y-9215206D01*
X24119469Y-9215206D02*
X24090878Y-9229524D01*
X24090878Y-9229524D02*
X24066441Y-9241074D01*
X24066441Y-9241074D02*
X24005861Y-9269016D01*
X24005861Y-9269016D02*
X23919816Y-9309329D01*
X23919816Y-9309329D02*
X23717172Y-9405493D01*
X23717172Y-9405493D02*
X23543269Y-9483982D01*
X23543269Y-9483982D02*
X23362350Y-9556479D01*
X23362350Y-9556479D02*
X23174785Y-9622932D01*
X23174785Y-9622932D02*
X22980943Y-9683284D01*
X22980943Y-9683284D02*
X22781193Y-9737481D01*
X22781193Y-9737481D02*
X22575905Y-9785469D01*
X22575905Y-9785469D02*
X22365448Y-9827193D01*
X22365448Y-9827193D02*
X22150190Y-9862597D01*
X22150190Y-9862597D02*
X21930502Y-9891628D01*
X21930502Y-9891628D02*
X21706752Y-9914231D01*
X21706752Y-9914231D02*
X21479310Y-9930350D01*
X21479310Y-9930350D02*
X21248545Y-9939932D01*
X21248545Y-9939932D02*
X21014826Y-9942921D01*
X21014826Y-9942921D02*
X20778522Y-9939264D01*
X20778522Y-9939264D02*
X20540003Y-9928904D01*
X20540003Y-9928904D02*
X20299638Y-9911788D01*
X20299638Y-9911788D02*
X20299638Y-9911788D01*
X20299638Y-9911788D02*
X20299638Y-9911788D01*
D11*
X21488181Y-6428899D02*
X21566426Y-6412952D01*
X21566426Y-6412952D02*
X21650614Y-6394680D01*
X21650614Y-6394680D02*
X21730634Y-6376340D01*
X21730634Y-6376340D02*
X21796373Y-6360184D01*
X21796373Y-6360184D02*
X21826983Y-6351587D01*
X21826983Y-6351587D02*
X21860856Y-6340900D01*
X21860856Y-6340900D02*
X21935502Y-6314532D01*
X21935502Y-6314532D02*
X22014529Y-6283628D01*
X22014529Y-6283628D02*
X22092155Y-6250734D01*
X22092155Y-6250734D02*
X22162596Y-6218399D01*
X22162596Y-6218399D02*
X22220070Y-6189169D01*
X22220070Y-6189169D02*
X22242137Y-6176515D01*
X22242137Y-6176515D02*
X22258795Y-6165592D01*
X22258795Y-6165592D02*
X22269319Y-6156720D01*
X22269319Y-6156720D02*
X22272056Y-6153152D01*
X22272056Y-6153152D02*
X22272988Y-6150216D01*
X22272988Y-6150216D02*
X22272470Y-6147757D01*
X22272470Y-6147757D02*
X22270941Y-6144936D01*
X22270941Y-6144936D02*
X22268442Y-6141773D01*
X22268442Y-6141773D02*
X22265012Y-6138288D01*
X22265012Y-6138288D02*
X22255518Y-6130431D01*
X22255518Y-6130431D02*
X22242779Y-6121522D01*
X22242779Y-6121522D02*
X22227112Y-6111722D01*
X22227112Y-6111722D02*
X22208835Y-6101187D01*
X22208835Y-6101187D02*
X22188266Y-6090078D01*
X22188266Y-6090078D02*
X22165724Y-6078553D01*
X22165724Y-6078553D02*
X22141527Y-6066770D01*
X22141527Y-6066770D02*
X22115992Y-6054888D01*
X22115992Y-6054888D02*
X22089438Y-6043066D01*
X22089438Y-6043066D02*
X22062183Y-6031462D01*
X22062183Y-6031462D02*
X22034545Y-6020235D01*
X22034545Y-6020235D02*
X22006843Y-6009543D01*
X22006843Y-6009543D02*
X21979393Y-5999546D01*
X21979393Y-5999546D02*
X21952515Y-5990401D01*
X21952515Y-5990401D02*
X21887173Y-5971025D01*
X21887173Y-5971025D02*
X21814639Y-5953126D01*
X21814639Y-5953126D02*
X21735912Y-5936774D01*
X21735912Y-5936774D02*
X21651991Y-5922038D01*
X21651991Y-5922038D02*
X21563875Y-5908988D01*
X21563875Y-5908988D02*
X21472563Y-5897694D01*
X21472563Y-5897694D02*
X21284344Y-5880648D01*
X21284344Y-5880648D02*
X21095327Y-5871457D01*
X21095327Y-5871457D02*
X21003016Y-5869981D01*
X21003016Y-5869981D02*
X20913502Y-5870677D01*
X20913502Y-5870677D02*
X20827783Y-5873614D01*
X20827783Y-5873614D02*
X20746859Y-5878862D01*
X20746859Y-5878862D02*
X20671728Y-5886491D01*
X20671728Y-5886491D02*
X20603389Y-5896570D01*
X20603389Y-5896570D02*
X20506581Y-5915618D01*
X20506581Y-5915618D02*
X20404412Y-5939556D01*
X20404412Y-5939556D02*
X20299110Y-5967687D01*
X20299110Y-5967687D02*
X20192902Y-5999313D01*
X20192902Y-5999313D02*
X20088014Y-6033738D01*
X20088014Y-6033738D02*
X19986674Y-6070265D01*
X19986674Y-6070265D02*
X19891108Y-6108198D01*
X19891108Y-6108198D02*
X19803544Y-6146839D01*
X19803544Y-6146839D02*
X19638179Y-6224234D01*
X19638179Y-6224234D02*
X19748422Y-6275646D01*
X19748422Y-6275646D02*
X19778133Y-6288619D01*
X19778133Y-6288619D02*
X19812411Y-6302033D01*
X19812411Y-6302033D02*
X19892555Y-6329642D01*
X19892555Y-6329642D02*
X19984638Y-6357400D01*
X19984638Y-6357400D02*
X20084438Y-6384233D01*
X20084438Y-6384233D02*
X20187738Y-6409069D01*
X20187738Y-6409069D02*
X20290317Y-6430834D01*
X20290317Y-6430834D02*
X20387958Y-6448455D01*
X20387958Y-6448455D02*
X20433607Y-6455375D01*
X20433607Y-6455375D02*
X20476440Y-6460857D01*
X20476440Y-6460857D02*
X20579787Y-6469040D01*
X20579787Y-6469040D02*
X20705365Y-6473249D01*
X20705365Y-6473249D02*
X20845363Y-6473733D01*
X20845363Y-6473733D02*
X20991966Y-6470737D01*
X20991966Y-6470737D02*
X21137363Y-6464509D01*
X21137363Y-6464509D02*
X21273739Y-6455296D01*
X21273739Y-6455296D02*
X21393283Y-6443343D01*
X21393283Y-6443343D02*
X21444300Y-6436417D01*
X21444300Y-6436417D02*
X21488180Y-6428898D01*
X21488180Y-6428898D02*
X21488181Y-6428899D01*
X21488181Y-6428899D02*
X21488181Y-6428899D01*
D12*
D13*
X16978212Y-5244574D02*
X17008212Y-5274574D01*
X17008212Y-5244574D02*
X16978212Y-5274574D01*
X18984200Y-7122400D02*
X19014200Y-7152400D01*
X19014200Y-7122400D02*
X18984200Y-7152400D01*
X21956000Y-4176000D02*
X21986000Y-4206000D01*
X21986000Y-4176000D02*
X21956000Y-4206000D01*
X22101156Y-7121909D02*
X22131156Y-7151909D01*
X22131156Y-7121909D02*
X22101156Y-7151909D01*
X24080733Y-6032983D02*
X24110733Y-6062983D01*
X24110733Y-6032983D02*
X24080733Y-6062983D01*
D14*
X16403000Y-6223000D02*
G75*
G03*
X16403000Y-6223000I-20000J0D01*
G01*
X16784000Y-6731000D02*
G75*
G03*
X16784000Y-6731000I-20000J0D01*
G01*
X16974500Y-7429500D02*
G75*
G03*
X16974500Y-7429500I-20000J0D01*
G01*
X17482500Y-7747000D02*
G75*
G03*
X17482500Y-7747000I-20000J0D01*
G01*
X18181000Y-7937500D02*
G75*
G03*
X18181000Y-7937500I-20000J0D01*
G01*
X18879500Y-8191500D02*
G75*
G03*
X18879500Y-8191500I-20000J0D01*
G01*
X19197000Y-8699500D02*
G75*
G03*
X19197000Y-8699500I-20000J0D01*
G01*
X19324000Y-4254500D02*
G75*
G03*
X19324000Y-4254500I-20000J0D01*
G01*
X19895500Y-8318500D02*
G75*
G03*
X19895500Y-8318500I-20000J0D01*
G01*
X22372000Y-8318500D02*
G75*
G03*
X22372000Y-8318500I-20000J0D01*
G01*
X22753000Y-8636000D02*
G75*
G03*
X22753000Y-8636000I-20000J0D01*
G01*
X23642000Y-8318500D02*
G75*
G03*
X23642000Y-8318500I-20000J0D01*
G01*
X23805500Y-7837500D02*
G75*
G03*
X23805500Y-7837500I-20000J0D01*
G01*
X24086500Y-7239000D02*
G75*
G03*
X24086500Y-7239000I-20000J0D01*
G01*
X24658000Y-7366000D02*
G75*
G03*
X24658000Y-7366000I-20000J0D01*
G01*
X24975500Y-7683500D02*
G75*
G03*
X24975500Y-7683500I-20000J0D01*
G01*
X25229500Y-7239000D02*
G75*
G03*
X25229500Y-7239000I-20000J0D01*
G01*
X25420000Y-6731000D02*
G75*
G03*
X25420000Y-6731000I-20000J0D01*
G01*
D15*
X20621695Y-5665000D02*
X20621695Y-5765000D01*
X20571695Y-5715000D02*
X20671695Y-5715000D01*
X20621695Y-6604800D02*
X20621695Y-6704800D01*
X20571695Y-6654800D02*
X20671695Y-6654800D01*
X21082000Y-5665000D02*
X21082000Y-5765000D01*
X21032000Y-5715000D02*
X21132000Y-5715000D01*
X21082000Y-6604800D02*
X21082000Y-6704800D01*
X21032000Y-6654800D02*
X21132000Y-6654800D01*
D16*
X21124567Y-3725567D02*
X21124567Y-3513433D01*
X20912433Y-3513433D01*
X20912433Y-3725567D01*
X21124567Y-3725567D01*
D12*
X16442372Y-10258398D02*
X16442372Y-10058398D01*
X16489991Y-10058398D01*
X16518562Y-10067921D01*
X16537610Y-10086969D01*
X16547134Y-10106017D01*
X16556657Y-10144112D01*
X16556657Y-10172683D01*
X16547134Y-10210779D01*
X16537610Y-10229826D01*
X16518562Y-10248874D01*
X16489991Y-10258398D01*
X16442372Y-10258398D01*
X16642372Y-10258398D02*
X16642372Y-10125064D01*
X16642372Y-10163159D02*
X16651895Y-10144112D01*
X16661419Y-10134588D01*
X16680467Y-10125064D01*
X16699515Y-10125064D01*
X16766181Y-10258398D02*
X16766181Y-10125064D01*
X16766181Y-10058398D02*
X16756657Y-10067921D01*
X16766181Y-10077445D01*
X16775705Y-10067921D01*
X16766181Y-10058398D01*
X16766181Y-10077445D01*
X16889991Y-10258398D02*
X16870943Y-10248874D01*
X16861419Y-10229826D01*
X16861419Y-10058398D01*
X16994753Y-10258398D02*
X16975705Y-10248874D01*
X16966181Y-10229826D01*
X16966181Y-10058398D01*
X17223324Y-10258398D02*
X17223324Y-10058398D01*
X17289991Y-10201255D01*
X17356657Y-10058398D01*
X17356657Y-10258398D01*
X17537610Y-10258398D02*
X17537610Y-10153636D01*
X17528086Y-10134588D01*
X17509038Y-10125064D01*
X17470943Y-10125064D01*
X17451896Y-10134588D01*
X17537610Y-10248874D02*
X17518562Y-10258398D01*
X17470943Y-10258398D01*
X17451896Y-10248874D01*
X17442372Y-10229826D01*
X17442372Y-10210779D01*
X17451896Y-10191731D01*
X17470943Y-10182207D01*
X17518562Y-10182207D01*
X17537610Y-10172683D01*
X17632848Y-10125064D02*
X17632848Y-10325064D01*
X17632848Y-10134588D02*
X17651896Y-10125064D01*
X17689991Y-10125064D01*
X17709038Y-10134588D01*
X17718562Y-10144112D01*
X17728086Y-10163159D01*
X17728086Y-10220302D01*
X17718562Y-10239350D01*
X17709038Y-10248874D01*
X17689991Y-10258398D01*
X17651896Y-10258398D01*
X17632848Y-10248874D01*
X17813800Y-10239350D02*
X17823324Y-10248874D01*
X17813800Y-10258398D01*
X17804277Y-10248874D01*
X17813800Y-10239350D01*
X17813800Y-10258398D01*
X17813800Y-10134588D02*
X17823324Y-10144112D01*
X17813800Y-10153636D01*
X17804277Y-10144112D01*
X17813800Y-10134588D01*
X17813800Y-10153636D01*
D13*
X16154753Y-10572921D02*
X16184753Y-10602921D01*
X16184753Y-10572921D02*
X16154753Y-10602921D01*
D12*
X16480467Y-10478398D02*
X16499515Y-10478398D01*
X16518562Y-10487921D01*
X16528086Y-10497445D01*
X16537610Y-10516493D01*
X16547134Y-10554588D01*
X16547134Y-10602207D01*
X16537610Y-10640302D01*
X16528086Y-10659350D01*
X16518562Y-10668874D01*
X16499515Y-10678398D01*
X16480467Y-10678398D01*
X16461419Y-10668874D01*
X16451895Y-10659350D01*
X16442372Y-10640302D01*
X16432848Y-10602207D01*
X16432848Y-10554588D01*
X16442372Y-10516493D01*
X16451895Y-10497445D01*
X16461419Y-10487921D01*
X16480467Y-10478398D01*
X16632848Y-10659350D02*
X16642372Y-10668874D01*
X16632848Y-10678398D01*
X16623324Y-10668874D01*
X16632848Y-10659350D01*
X16632848Y-10678398D01*
X16709038Y-10478398D02*
X16832848Y-10478398D01*
X16766181Y-10554588D01*
X16794753Y-10554588D01*
X16813800Y-10564112D01*
X16823324Y-10573636D01*
X16832848Y-10592683D01*
X16832848Y-10640302D01*
X16823324Y-10659350D01*
X16813800Y-10668874D01*
X16794753Y-10678398D01*
X16737610Y-10678398D01*
X16718562Y-10668874D01*
X16709038Y-10659350D01*
X16956657Y-10478398D02*
X16975705Y-10478398D01*
X16994753Y-10487921D01*
X17004277Y-10497445D01*
X17013800Y-10516493D01*
X17023324Y-10554588D01*
X17023324Y-10602207D01*
X17013800Y-10640302D01*
X17004277Y-10659350D01*
X16994753Y-10668874D01*
X16975705Y-10678398D01*
X16956657Y-10678398D01*
X16937610Y-10668874D01*
X16928086Y-10659350D01*
X16918562Y-10640302D01*
X16909038Y-10602207D01*
X16909038Y-10554588D01*
X16918562Y-10516493D01*
X16928086Y-10497445D01*
X16937610Y-10487921D01*
X16956657Y-10478398D01*
X17147134Y-10478398D02*
X17166181Y-10478398D01*
X17185229Y-10487921D01*
X17194753Y-10497445D01*
X17204277Y-10516493D01*
X17213800Y-10554588D01*
X17213800Y-10602207D01*
X17204277Y-10640302D01*
X17194753Y-10659350D01*
X17185229Y-10668874D01*
X17166181Y-10678398D01*
X17147134Y-10678398D01*
X17128086Y-10668874D01*
X17118562Y-10659350D01*
X17109038Y-10640302D01*
X17099515Y-10602207D01*
X17099515Y-10554588D01*
X17109038Y-10516493D01*
X17118562Y-10497445D01*
X17128086Y-10487921D01*
X17147134Y-10478398D01*
X17299515Y-10678398D02*
X17299515Y-10545064D01*
X17299515Y-10564112D02*
X17309038Y-10554588D01*
X17328086Y-10545064D01*
X17356657Y-10545064D01*
X17375705Y-10554588D01*
X17385229Y-10573636D01*
X17385229Y-10678398D01*
X17385229Y-10573636D02*
X17394753Y-10554588D01*
X17413800Y-10545064D01*
X17442372Y-10545064D01*
X17461419Y-10554588D01*
X17470943Y-10573636D01*
X17470943Y-10678398D01*
X17566181Y-10678398D02*
X17566181Y-10545064D01*
X17566181Y-10564112D02*
X17575705Y-10554588D01*
X17594753Y-10545064D01*
X17623324Y-10545064D01*
X17642372Y-10554588D01*
X17651896Y-10573636D01*
X17651896Y-10678398D01*
X17651896Y-10573636D02*
X17661419Y-10554588D01*
X17680467Y-10545064D01*
X17709038Y-10545064D01*
X17728086Y-10554588D01*
X17737610Y-10573636D01*
X17737610Y-10678398D01*
X18128086Y-10468874D02*
X17956657Y-10726017D01*
X18385229Y-10478398D02*
X18404277Y-10478398D01*
X18423324Y-10487921D01*
X18432848Y-10497445D01*
X18442372Y-10516493D01*
X18451896Y-10554588D01*
X18451896Y-10602207D01*
X18442372Y-10640302D01*
X18432848Y-10659350D01*
X18423324Y-10668874D01*
X18404277Y-10678398D01*
X18385229Y-10678398D01*
X18366181Y-10668874D01*
X18356657Y-10659350D01*
X18347134Y-10640302D01*
X18337610Y-10602207D01*
X18337610Y-10554588D01*
X18347134Y-10516493D01*
X18356657Y-10497445D01*
X18366181Y-10487921D01*
X18385229Y-10478398D01*
X18537610Y-10659350D02*
X18547134Y-10668874D01*
X18537610Y-10678398D01*
X18528086Y-10668874D01*
X18537610Y-10659350D01*
X18537610Y-10678398D01*
X18670943Y-10478398D02*
X18689991Y-10478398D01*
X18709038Y-10487921D01*
X18718562Y-10497445D01*
X18728086Y-10516493D01*
X18737610Y-10554588D01*
X18737610Y-10602207D01*
X18728086Y-10640302D01*
X18718562Y-10659350D01*
X18709038Y-10668874D01*
X18689991Y-10678398D01*
X18670943Y-10678398D01*
X18651896Y-10668874D01*
X18642372Y-10659350D01*
X18632848Y-10640302D01*
X18623324Y-10602207D01*
X18623324Y-10554588D01*
X18632848Y-10516493D01*
X18642372Y-10497445D01*
X18651896Y-10487921D01*
X18670943Y-10478398D01*
X18928086Y-10678398D02*
X18813800Y-10678398D01*
X18870943Y-10678398D02*
X18870943Y-10478398D01*
X18851896Y-10506969D01*
X18832848Y-10526017D01*
X18813800Y-10535540D01*
X19118562Y-10678398D02*
X19004277Y-10678398D01*
X19061419Y-10678398D02*
X19061419Y-10478398D01*
X19042372Y-10506969D01*
X19023324Y-10526017D01*
X19004277Y-10535540D01*
X19232848Y-10564112D02*
X19213800Y-10554588D01*
X19204277Y-10545064D01*
X19194753Y-10526017D01*
X19194753Y-10516493D01*
X19204277Y-10497445D01*
X19213800Y-10487921D01*
X19232848Y-10478398D01*
X19270943Y-10478398D01*
X19289991Y-10487921D01*
X19299515Y-10497445D01*
X19309038Y-10516493D01*
X19309038Y-10526017D01*
X19299515Y-10545064D01*
X19289991Y-10554588D01*
X19270943Y-10564112D01*
X19232848Y-10564112D01*
X19213800Y-10573636D01*
X19204277Y-10583159D01*
X19194753Y-10602207D01*
X19194753Y-10640302D01*
X19204277Y-10659350D01*
X19213800Y-10668874D01*
X19232848Y-10678398D01*
X19270943Y-10678398D01*
X19289991Y-10668874D01*
X19299515Y-10659350D01*
X19309038Y-10640302D01*
X19309038Y-10602207D01*
X19299515Y-10583159D01*
X19289991Y-10573636D01*
X19270943Y-10564112D01*
X19385229Y-10478398D02*
X19385229Y-10516493D01*
X19461419Y-10478398D02*
X19461419Y-10516493D01*
X19756657Y-10754588D02*
X19747134Y-10745064D01*
X19728086Y-10716493D01*
X19718562Y-10697445D01*
X19709038Y-10668874D01*
X19699515Y-10621255D01*
X19699515Y-10583159D01*
X19709038Y-10535540D01*
X19718562Y-10506969D01*
X19728086Y-10487921D01*
X19747134Y-10459350D01*
X19756657Y-10449826D01*
X19928086Y-10478398D02*
X19832848Y-10478398D01*
X19823324Y-10573636D01*
X19832848Y-10564112D01*
X19851896Y-10554588D01*
X19899515Y-10554588D01*
X19918562Y-10564112D01*
X19928086Y-10573636D01*
X19937610Y-10592683D01*
X19937610Y-10640302D01*
X19928086Y-10659350D01*
X19918562Y-10668874D01*
X19899515Y-10678398D01*
X19851896Y-10678398D01*
X19832848Y-10668874D01*
X19823324Y-10659350D01*
X20175705Y-10678398D02*
X20175705Y-10478398D01*
X20261419Y-10678398D02*
X20261419Y-10573636D01*
X20251896Y-10554588D01*
X20232848Y-10545064D01*
X20204277Y-10545064D01*
X20185229Y-10554588D01*
X20175705Y-10564112D01*
X20385229Y-10678398D02*
X20366181Y-10668874D01*
X20356657Y-10659350D01*
X20347134Y-10640302D01*
X20347134Y-10583159D01*
X20356657Y-10564112D01*
X20366181Y-10554588D01*
X20385229Y-10545064D01*
X20413800Y-10545064D01*
X20432848Y-10554588D01*
X20442372Y-10564112D01*
X20451896Y-10583159D01*
X20451896Y-10640302D01*
X20442372Y-10659350D01*
X20432848Y-10668874D01*
X20413800Y-10678398D01*
X20385229Y-10678398D01*
X20566181Y-10678398D02*
X20547134Y-10668874D01*
X20537610Y-10649826D01*
X20537610Y-10478398D01*
X20718562Y-10668874D02*
X20699515Y-10678398D01*
X20661419Y-10678398D01*
X20642372Y-10668874D01*
X20632848Y-10649826D01*
X20632848Y-10573636D01*
X20642372Y-10554588D01*
X20661419Y-10545064D01*
X20699515Y-10545064D01*
X20718562Y-10554588D01*
X20728086Y-10573636D01*
X20728086Y-10592683D01*
X20632848Y-10611731D01*
X20804277Y-10668874D02*
X20823324Y-10678398D01*
X20861419Y-10678398D01*
X20880467Y-10668874D01*
X20889991Y-10649826D01*
X20889991Y-10640302D01*
X20880467Y-10621255D01*
X20861419Y-10611731D01*
X20832848Y-10611731D01*
X20813800Y-10602207D01*
X20804277Y-10583159D01*
X20804277Y-10573636D01*
X20813800Y-10554588D01*
X20832848Y-10545064D01*
X20861419Y-10545064D01*
X20880467Y-10554588D01*
X20956657Y-10754588D02*
X20966181Y-10745064D01*
X20985229Y-10716493D01*
X20994753Y-10697445D01*
X21004277Y-10668874D01*
X21013800Y-10621255D01*
X21013800Y-10583159D01*
X21004277Y-10535540D01*
X20994753Y-10506969D01*
X20985229Y-10487921D01*
X20966181Y-10459350D01*
X20956657Y-10449826D01*
D14*
X16184753Y-10851921D02*
G75*
G03*
X16184753Y-10851921I-20000J0D01*
G01*
D12*
X16480467Y-10742398D02*
X16499515Y-10742398D01*
X16518562Y-10751921D01*
X16528086Y-10761445D01*
X16537610Y-10780493D01*
X16547134Y-10818588D01*
X16547134Y-10866207D01*
X16537610Y-10904302D01*
X16528086Y-10923350D01*
X16518562Y-10932874D01*
X16499515Y-10942398D01*
X16480467Y-10942398D01*
X16461419Y-10932874D01*
X16451895Y-10923350D01*
X16442372Y-10904302D01*
X16432848Y-10866207D01*
X16432848Y-10818588D01*
X16442372Y-10780493D01*
X16451895Y-10761445D01*
X16461419Y-10751921D01*
X16480467Y-10742398D01*
X16632848Y-10923350D02*
X16642372Y-10932874D01*
X16632848Y-10942398D01*
X16623324Y-10932874D01*
X16632848Y-10923350D01*
X16632848Y-10942398D01*
X16813800Y-10809064D02*
X16813800Y-10942398D01*
X16766181Y-10732874D02*
X16718562Y-10875731D01*
X16842372Y-10875731D01*
X16956657Y-10742398D02*
X16975705Y-10742398D01*
X16994753Y-10751921D01*
X17004277Y-10761445D01*
X17013800Y-10780493D01*
X17023324Y-10818588D01*
X17023324Y-10866207D01*
X17013800Y-10904302D01*
X17004277Y-10923350D01*
X16994753Y-10932874D01*
X16975705Y-10942398D01*
X16956657Y-10942398D01*
X16937610Y-10932874D01*
X16928086Y-10923350D01*
X16918562Y-10904302D01*
X16909038Y-10866207D01*
X16909038Y-10818588D01*
X16918562Y-10780493D01*
X16928086Y-10761445D01*
X16937610Y-10751921D01*
X16956657Y-10742398D01*
X17147134Y-10742398D02*
X17166181Y-10742398D01*
X17185229Y-10751921D01*
X17194753Y-10761445D01*
X17204277Y-10780493D01*
X17213800Y-10818588D01*
X17213800Y-10866207D01*
X17204277Y-10904302D01*
X17194753Y-10923350D01*
X17185229Y-10932874D01*
X17166181Y-10942398D01*
X17147134Y-10942398D01*
X17128086Y-10932874D01*
X17118562Y-10923350D01*
X17109038Y-10904302D01*
X17099515Y-10866207D01*
X17099515Y-10818588D01*
X17109038Y-10780493D01*
X17118562Y-10761445D01*
X17128086Y-10751921D01*
X17147134Y-10742398D01*
X17299515Y-10942398D02*
X17299515Y-10809064D01*
X17299515Y-10828112D02*
X17309038Y-10818588D01*
X17328086Y-10809064D01*
X17356657Y-10809064D01*
X17375705Y-10818588D01*
X17385229Y-10837636D01*
X17385229Y-10942398D01*
X17385229Y-10837636D02*
X17394753Y-10818588D01*
X17413800Y-10809064D01*
X17442372Y-10809064D01*
X17461419Y-10818588D01*
X17470943Y-10837636D01*
X17470943Y-10942398D01*
X17566181Y-10942398D02*
X17566181Y-10809064D01*
X17566181Y-10828112D02*
X17575705Y-10818588D01*
X17594753Y-10809064D01*
X17623324Y-10809064D01*
X17642372Y-10818588D01*
X17651896Y-10837636D01*
X17651896Y-10942398D01*
X17651896Y-10837636D02*
X17661419Y-10818588D01*
X17680467Y-10809064D01*
X17709038Y-10809064D01*
X17728086Y-10818588D01*
X17737610Y-10837636D01*
X17737610Y-10942398D01*
X18128086Y-10732874D02*
X17956657Y-10990017D01*
X18385229Y-10742398D02*
X18404277Y-10742398D01*
X18423324Y-10751921D01*
X18432848Y-10761445D01*
X18442372Y-10780493D01*
X18451896Y-10818588D01*
X18451896Y-10866207D01*
X18442372Y-10904302D01*
X18432848Y-10923350D01*
X18423324Y-10932874D01*
X18404277Y-10942398D01*
X18385229Y-10942398D01*
X18366181Y-10932874D01*
X18356657Y-10923350D01*
X18347134Y-10904302D01*
X18337610Y-10866207D01*
X18337610Y-10818588D01*
X18347134Y-10780493D01*
X18356657Y-10761445D01*
X18366181Y-10751921D01*
X18385229Y-10742398D01*
X18537610Y-10923350D02*
X18547134Y-10932874D01*
X18537610Y-10942398D01*
X18528086Y-10932874D01*
X18537610Y-10923350D01*
X18537610Y-10942398D01*
X18670943Y-10742398D02*
X18689991Y-10742398D01*
X18709038Y-10751921D01*
X18718562Y-10761445D01*
X18728086Y-10780493D01*
X18737610Y-10818588D01*
X18737610Y-10866207D01*
X18728086Y-10904302D01*
X18718562Y-10923350D01*
X18709038Y-10932874D01*
X18689991Y-10942398D01*
X18670943Y-10942398D01*
X18651896Y-10932874D01*
X18642372Y-10923350D01*
X18632848Y-10904302D01*
X18623324Y-10866207D01*
X18623324Y-10818588D01*
X18632848Y-10780493D01*
X18642372Y-10761445D01*
X18651896Y-10751921D01*
X18670943Y-10742398D01*
X18928086Y-10942398D02*
X18813800Y-10942398D01*
X18870943Y-10942398D02*
X18870943Y-10742398D01*
X18851896Y-10770969D01*
X18832848Y-10790017D01*
X18813800Y-10799540D01*
X19109038Y-10742398D02*
X19013800Y-10742398D01*
X19004277Y-10837636D01*
X19013800Y-10828112D01*
X19032848Y-10818588D01*
X19080467Y-10818588D01*
X19099515Y-10828112D01*
X19109038Y-10837636D01*
X19118562Y-10856683D01*
X19118562Y-10904302D01*
X19109038Y-10923350D01*
X19099515Y-10932874D01*
X19080467Y-10942398D01*
X19032848Y-10942398D01*
X19013800Y-10932874D01*
X19004277Y-10923350D01*
X19185229Y-10742398D02*
X19318562Y-10742398D01*
X19232848Y-10942398D01*
X19385229Y-10742398D02*
X19385229Y-10780493D01*
X19461419Y-10742398D02*
X19461419Y-10780493D01*
X19756657Y-11018588D02*
X19747134Y-11009064D01*
X19728086Y-10980493D01*
X19718562Y-10961445D01*
X19709038Y-10932874D01*
X19699515Y-10885255D01*
X19699515Y-10847159D01*
X19709038Y-10799540D01*
X19718562Y-10770969D01*
X19728086Y-10751921D01*
X19747134Y-10723350D01*
X19756657Y-10713826D01*
X19937610Y-10942398D02*
X19823324Y-10942398D01*
X19880467Y-10942398D02*
X19880467Y-10742398D01*
X19861419Y-10770969D01*
X19842372Y-10790017D01*
X19823324Y-10799540D01*
X20051896Y-10828112D02*
X20032848Y-10818588D01*
X20023324Y-10809064D01*
X20013800Y-10790017D01*
X20013800Y-10780493D01*
X20023324Y-10761445D01*
X20032848Y-10751921D01*
X20051896Y-10742398D01*
X20089991Y-10742398D01*
X20109038Y-10751921D01*
X20118562Y-10761445D01*
X20128086Y-10780493D01*
X20128086Y-10790017D01*
X20118562Y-10809064D01*
X20109038Y-10818588D01*
X20089991Y-10828112D01*
X20051896Y-10828112D01*
X20032848Y-10837636D01*
X20023324Y-10847159D01*
X20013800Y-10866207D01*
X20013800Y-10904302D01*
X20023324Y-10923350D01*
X20032848Y-10932874D01*
X20051896Y-10942398D01*
X20089991Y-10942398D01*
X20109038Y-10932874D01*
X20118562Y-10923350D01*
X20128086Y-10904302D01*
X20128086Y-10866207D01*
X20118562Y-10847159D01*
X20109038Y-10837636D01*
X20089991Y-10828112D01*
X20366181Y-10942398D02*
X20366181Y-10742398D01*
X20451896Y-10942398D02*
X20451896Y-10837636D01*
X20442372Y-10818588D01*
X20423324Y-10809064D01*
X20394753Y-10809064D01*
X20375705Y-10818588D01*
X20366181Y-10828112D01*
X20575705Y-10942398D02*
X20556657Y-10932874D01*
X20547134Y-10923350D01*
X20537610Y-10904302D01*
X20537610Y-10847159D01*
X20547134Y-10828112D01*
X20556657Y-10818588D01*
X20575705Y-10809064D01*
X20604277Y-10809064D01*
X20623324Y-10818588D01*
X20632848Y-10828112D01*
X20642372Y-10847159D01*
X20642372Y-10904302D01*
X20632848Y-10923350D01*
X20623324Y-10932874D01*
X20604277Y-10942398D01*
X20575705Y-10942398D01*
X20756657Y-10942398D02*
X20737610Y-10932874D01*
X20728086Y-10913826D01*
X20728086Y-10742398D01*
X20909038Y-10932874D02*
X20889991Y-10942398D01*
X20851896Y-10942398D01*
X20832848Y-10932874D01*
X20823324Y-10913826D01*
X20823324Y-10837636D01*
X20832848Y-10818588D01*
X20851896Y-10809064D01*
X20889991Y-10809064D01*
X20909038Y-10818588D01*
X20918562Y-10837636D01*
X20918562Y-10856683D01*
X20823324Y-10875731D01*
X20994753Y-10932874D02*
X21013800Y-10942398D01*
X21051896Y-10942398D01*
X21070943Y-10932874D01*
X21080467Y-10913826D01*
X21080467Y-10904302D01*
X21070943Y-10885255D01*
X21051896Y-10875731D01*
X21023324Y-10875731D01*
X21004277Y-10866207D01*
X20994753Y-10847159D01*
X20994753Y-10837636D01*
X21004277Y-10818588D01*
X21023324Y-10809064D01*
X21051896Y-10809064D01*
X21070943Y-10818588D01*
X21147134Y-11018588D02*
X21156657Y-11009064D01*
X21175705Y-10980493D01*
X21185229Y-10961445D01*
X21194753Y-10932874D01*
X21204277Y-10885255D01*
X21204277Y-10847159D01*
X21194753Y-10799540D01*
X21185229Y-10770969D01*
X21175705Y-10751921D01*
X21156657Y-10723350D01*
X21147134Y-10713826D01*
D15*
X16134753Y-11065921D02*
X16134753Y-11165921D01*
X16084753Y-11115921D02*
X16184753Y-11115921D01*
D12*
X16547134Y-11206397D02*
X16432848Y-11206397D01*
X16489991Y-11206397D02*
X16489991Y-11006398D01*
X16470943Y-11034969D01*
X16451895Y-11054017D01*
X16432848Y-11063540D01*
X16632848Y-11187350D02*
X16642372Y-11196874D01*
X16632848Y-11206397D01*
X16623324Y-11196874D01*
X16632848Y-11187350D01*
X16632848Y-11206397D01*
X16766181Y-11006398D02*
X16785229Y-11006398D01*
X16804277Y-11015921D01*
X16813800Y-11025445D01*
X16823324Y-11044493D01*
X16832848Y-11082588D01*
X16832848Y-11130207D01*
X16823324Y-11168302D01*
X16813800Y-11187350D01*
X16804277Y-11196874D01*
X16785229Y-11206397D01*
X16766181Y-11206397D01*
X16747134Y-11196874D01*
X16737610Y-11187350D01*
X16728086Y-11168302D01*
X16718562Y-11130207D01*
X16718562Y-11082588D01*
X16728086Y-11044493D01*
X16737610Y-11025445D01*
X16747134Y-11015921D01*
X16766181Y-11006398D01*
X16956657Y-11006398D02*
X16975705Y-11006398D01*
X16994753Y-11015921D01*
X17004277Y-11025445D01*
X17013800Y-11044493D01*
X17023324Y-11082588D01*
X17023324Y-11130207D01*
X17013800Y-11168302D01*
X17004277Y-11187350D01*
X16994753Y-11196874D01*
X16975705Y-11206397D01*
X16956657Y-11206397D01*
X16937610Y-11196874D01*
X16928086Y-11187350D01*
X16918562Y-11168302D01*
X16909038Y-11130207D01*
X16909038Y-11082588D01*
X16918562Y-11044493D01*
X16928086Y-11025445D01*
X16937610Y-11015921D01*
X16956657Y-11006398D01*
X17147134Y-11006398D02*
X17166181Y-11006398D01*
X17185229Y-11015921D01*
X17194753Y-11025445D01*
X17204277Y-11044493D01*
X17213800Y-11082588D01*
X17213800Y-11130207D01*
X17204277Y-11168302D01*
X17194753Y-11187350D01*
X17185229Y-11196874D01*
X17166181Y-11206397D01*
X17147134Y-11206397D01*
X17128086Y-11196874D01*
X17118562Y-11187350D01*
X17109038Y-11168302D01*
X17099515Y-11130207D01*
X17099515Y-11082588D01*
X17109038Y-11044493D01*
X17118562Y-11025445D01*
X17128086Y-11015921D01*
X17147134Y-11006398D01*
X17299515Y-11206397D02*
X17299515Y-11073064D01*
X17299515Y-11092112D02*
X17309038Y-11082588D01*
X17328086Y-11073064D01*
X17356657Y-11073064D01*
X17375705Y-11082588D01*
X17385229Y-11101636D01*
X17385229Y-11206397D01*
X17385229Y-11101636D02*
X17394753Y-11082588D01*
X17413800Y-11073064D01*
X17442372Y-11073064D01*
X17461419Y-11082588D01*
X17470943Y-11101636D01*
X17470943Y-11206397D01*
X17566181Y-11206397D02*
X17566181Y-11073064D01*
X17566181Y-11092112D02*
X17575705Y-11082588D01*
X17594753Y-11073064D01*
X17623324Y-11073064D01*
X17642372Y-11082588D01*
X17651896Y-11101636D01*
X17651896Y-11206397D01*
X17651896Y-11101636D02*
X17661419Y-11082588D01*
X17680467Y-11073064D01*
X17709038Y-11073064D01*
X17728086Y-11082588D01*
X17737610Y-11101636D01*
X17737610Y-11206397D01*
X18128086Y-10996874D02*
X17956657Y-11254017D01*
X18385229Y-11006398D02*
X18404277Y-11006398D01*
X18423324Y-11015921D01*
X18432848Y-11025445D01*
X18442372Y-11044493D01*
X18451896Y-11082588D01*
X18451896Y-11130207D01*
X18442372Y-11168302D01*
X18432848Y-11187350D01*
X18423324Y-11196874D01*
X18404277Y-11206397D01*
X18385229Y-11206397D01*
X18366181Y-11196874D01*
X18356657Y-11187350D01*
X18347134Y-11168302D01*
X18337610Y-11130207D01*
X18337610Y-11082588D01*
X18347134Y-11044493D01*
X18356657Y-11025445D01*
X18366181Y-11015921D01*
X18385229Y-11006398D01*
X18537610Y-11187350D02*
X18547134Y-11196874D01*
X18537610Y-11206397D01*
X18528086Y-11196874D01*
X18537610Y-11187350D01*
X18537610Y-11206397D01*
X18670943Y-11006398D02*
X18689991Y-11006398D01*
X18709038Y-11015921D01*
X18718562Y-11025445D01*
X18728086Y-11044493D01*
X18737610Y-11082588D01*
X18737610Y-11130207D01*
X18728086Y-11168302D01*
X18718562Y-11187350D01*
X18709038Y-11196874D01*
X18689991Y-11206397D01*
X18670943Y-11206397D01*
X18651896Y-11196874D01*
X18642372Y-11187350D01*
X18632848Y-11168302D01*
X18623324Y-11130207D01*
X18623324Y-11082588D01*
X18632848Y-11044493D01*
X18642372Y-11025445D01*
X18651896Y-11015921D01*
X18670943Y-11006398D01*
X18804277Y-11006398D02*
X18928086Y-11006398D01*
X18861419Y-11082588D01*
X18889991Y-11082588D01*
X18909038Y-11092112D01*
X18918562Y-11101636D01*
X18928086Y-11120683D01*
X18928086Y-11168302D01*
X18918562Y-11187350D01*
X18909038Y-11196874D01*
X18889991Y-11206397D01*
X18832848Y-11206397D01*
X18813800Y-11196874D01*
X18804277Y-11187350D01*
X19023324Y-11206397D02*
X19061419Y-11206397D01*
X19080467Y-11196874D01*
X19089991Y-11187350D01*
X19109038Y-11158779D01*
X19118562Y-11120683D01*
X19118562Y-11044493D01*
X19109038Y-11025445D01*
X19099515Y-11015921D01*
X19080467Y-11006398D01*
X19042372Y-11006398D01*
X19023324Y-11015921D01*
X19013800Y-11025445D01*
X19004277Y-11044493D01*
X19004277Y-11092112D01*
X19013800Y-11111159D01*
X19023324Y-11120683D01*
X19042372Y-11130207D01*
X19080467Y-11130207D01*
X19099515Y-11120683D01*
X19109038Y-11111159D01*
X19118562Y-11092112D01*
X19289991Y-11073064D02*
X19289991Y-11206397D01*
X19242372Y-10996874D02*
X19194753Y-11139731D01*
X19318562Y-11139731D01*
X19385229Y-11006398D02*
X19385229Y-11044493D01*
X19461419Y-11006398D02*
X19461419Y-11044493D01*
X19756657Y-11282588D02*
X19747134Y-11273064D01*
X19728086Y-11244493D01*
X19718562Y-11225445D01*
X19709038Y-11196874D01*
X19699515Y-11149255D01*
X19699515Y-11111159D01*
X19709038Y-11063540D01*
X19718562Y-11034969D01*
X19728086Y-11015921D01*
X19747134Y-10987350D01*
X19756657Y-10977826D01*
X19918562Y-11073064D02*
X19918562Y-11206397D01*
X19870943Y-10996874D02*
X19823324Y-11139731D01*
X19947134Y-11139731D01*
X20175705Y-11206397D02*
X20175705Y-11006398D01*
X20261419Y-11206397D02*
X20261419Y-11101636D01*
X20251896Y-11082588D01*
X20232848Y-11073064D01*
X20204277Y-11073064D01*
X20185229Y-11082588D01*
X20175705Y-11092112D01*
X20385229Y-11206397D02*
X20366181Y-11196874D01*
X20356657Y-11187350D01*
X20347134Y-11168302D01*
X20347134Y-11111159D01*
X20356657Y-11092112D01*
X20366181Y-11082588D01*
X20385229Y-11073064D01*
X20413800Y-11073064D01*
X20432848Y-11082588D01*
X20442372Y-11092112D01*
X20451896Y-11111159D01*
X20451896Y-11168302D01*
X20442372Y-11187350D01*
X20432848Y-11196874D01*
X20413800Y-11206397D01*
X20385229Y-11206397D01*
X20566181Y-11206397D02*
X20547134Y-11196874D01*
X20537610Y-11177826D01*
X20537610Y-11006398D01*
X20718562Y-11196874D02*
X20699515Y-11206397D01*
X20661419Y-11206397D01*
X20642372Y-11196874D01*
X20632848Y-11177826D01*
X20632848Y-11101636D01*
X20642372Y-11082588D01*
X20661419Y-11073064D01*
X20699515Y-11073064D01*
X20718562Y-11082588D01*
X20728086Y-11101636D01*
X20728086Y-11120683D01*
X20632848Y-11139731D01*
X20804277Y-11196874D02*
X20823324Y-11206397D01*
X20861419Y-11206397D01*
X20880467Y-11196874D01*
X20889991Y-11177826D01*
X20889991Y-11168302D01*
X20880467Y-11149255D01*
X20861419Y-11139731D01*
X20832848Y-11139731D01*
X20813800Y-11130207D01*
X20804277Y-11111159D01*
X20804277Y-11101636D01*
X20813800Y-11082588D01*
X20832848Y-11073064D01*
X20861419Y-11073064D01*
X20880467Y-11082588D01*
X20956657Y-11282588D02*
X20966181Y-11273064D01*
X20985229Y-11244493D01*
X20994753Y-11225445D01*
X21004277Y-11196874D01*
X21013800Y-11149255D01*
X21013800Y-11111159D01*
X21004277Y-11063540D01*
X20994753Y-11034969D01*
X20985229Y-11015921D01*
X20966181Y-10987350D01*
X20956657Y-10977826D01*
X16155464Y-11450633D02*
X16155464Y-11309210D01*
X16014041Y-11309210D01*
X16014041Y-11450633D01*
X16155464Y-11450633D01*
X16423324Y-11270397D02*
X16547134Y-11270397D01*
X16480467Y-11346588D01*
X16509038Y-11346588D01*
X16528086Y-11356112D01*
X16537610Y-11365636D01*
X16547134Y-11384683D01*
X16547134Y-11432302D01*
X16537610Y-11451350D01*
X16528086Y-11460874D01*
X16509038Y-11470397D01*
X16451895Y-11470397D01*
X16432848Y-11460874D01*
X16423324Y-11451350D01*
X16632848Y-11451350D02*
X16642372Y-11460874D01*
X16632848Y-11470397D01*
X16623324Y-11460874D01*
X16632848Y-11451350D01*
X16632848Y-11470397D01*
X16766181Y-11270397D02*
X16785229Y-11270397D01*
X16804277Y-11279921D01*
X16813800Y-11289445D01*
X16823324Y-11308493D01*
X16832848Y-11346588D01*
X16832848Y-11394207D01*
X16823324Y-11432302D01*
X16813800Y-11451350D01*
X16804277Y-11460874D01*
X16785229Y-11470397D01*
X16766181Y-11470397D01*
X16747134Y-11460874D01*
X16737610Y-11451350D01*
X16728086Y-11432302D01*
X16718562Y-11394207D01*
X16718562Y-11346588D01*
X16728086Y-11308493D01*
X16737610Y-11289445D01*
X16747134Y-11279921D01*
X16766181Y-11270397D01*
X16956657Y-11270397D02*
X16975705Y-11270397D01*
X16994753Y-11279921D01*
X17004277Y-11289445D01*
X17013800Y-11308493D01*
X17023324Y-11346588D01*
X17023324Y-11394207D01*
X17013800Y-11432302D01*
X17004277Y-11451350D01*
X16994753Y-11460874D01*
X16975705Y-11470397D01*
X16956657Y-11470397D01*
X16937610Y-11460874D01*
X16928086Y-11451350D01*
X16918562Y-11432302D01*
X16909038Y-11394207D01*
X16909038Y-11346588D01*
X16918562Y-11308493D01*
X16928086Y-11289445D01*
X16937610Y-11279921D01*
X16956657Y-11270397D01*
X17147134Y-11270397D02*
X17166181Y-11270397D01*
X17185229Y-11279921D01*
X17194753Y-11289445D01*
X17204277Y-11308493D01*
X17213800Y-11346588D01*
X17213800Y-11394207D01*
X17204277Y-11432302D01*
X17194753Y-11451350D01*
X17185229Y-11460874D01*
X17166181Y-11470397D01*
X17147134Y-11470397D01*
X17128086Y-11460874D01*
X17118562Y-11451350D01*
X17109038Y-11432302D01*
X17099515Y-11394207D01*
X17099515Y-11346588D01*
X17109038Y-11308493D01*
X17118562Y-11289445D01*
X17128086Y-11279921D01*
X17147134Y-11270397D01*
X17299515Y-11470397D02*
X17299515Y-11337064D01*
X17299515Y-11356112D02*
X17309038Y-11346588D01*
X17328086Y-11337064D01*
X17356657Y-11337064D01*
X17375705Y-11346588D01*
X17385229Y-11365636D01*
X17385229Y-11470397D01*
X17385229Y-11365636D02*
X17394753Y-11346588D01*
X17413800Y-11337064D01*
X17442372Y-11337064D01*
X17461419Y-11346588D01*
X17470943Y-11365636D01*
X17470943Y-11470397D01*
X17566181Y-11470397D02*
X17566181Y-11337064D01*
X17566181Y-11356112D02*
X17575705Y-11346588D01*
X17594753Y-11337064D01*
X17623324Y-11337064D01*
X17642372Y-11346588D01*
X17651896Y-11365636D01*
X17651896Y-11470397D01*
X17651896Y-11365636D02*
X17661419Y-11346588D01*
X17680467Y-11337064D01*
X17709038Y-11337064D01*
X17728086Y-11346588D01*
X17737610Y-11365636D01*
X17737610Y-11470397D01*
X18128086Y-11260874D02*
X17956657Y-11518017D01*
X18385229Y-11270397D02*
X18404277Y-11270397D01*
X18423324Y-11279921D01*
X18432848Y-11289445D01*
X18442372Y-11308493D01*
X18451896Y-11346588D01*
X18451896Y-11394207D01*
X18442372Y-11432302D01*
X18432848Y-11451350D01*
X18423324Y-11460874D01*
X18404277Y-11470397D01*
X18385229Y-11470397D01*
X18366181Y-11460874D01*
X18356657Y-11451350D01*
X18347134Y-11432302D01*
X18337610Y-11394207D01*
X18337610Y-11346588D01*
X18347134Y-11308493D01*
X18356657Y-11289445D01*
X18366181Y-11279921D01*
X18385229Y-11270397D01*
X18537610Y-11451350D02*
X18547134Y-11460874D01*
X18537610Y-11470397D01*
X18528086Y-11460874D01*
X18537610Y-11451350D01*
X18537610Y-11470397D01*
X18737610Y-11470397D02*
X18623324Y-11470397D01*
X18680467Y-11470397D02*
X18680467Y-11270397D01*
X18661419Y-11298969D01*
X18642372Y-11318017D01*
X18623324Y-11327540D01*
X18928086Y-11470397D02*
X18813800Y-11470397D01*
X18870943Y-11470397D02*
X18870943Y-11270397D01*
X18851896Y-11298969D01*
X18832848Y-11318017D01*
X18813800Y-11327540D01*
X19042372Y-11356112D02*
X19023324Y-11346588D01*
X19013800Y-11337064D01*
X19004277Y-11318017D01*
X19004277Y-11308493D01*
X19013800Y-11289445D01*
X19023324Y-11279921D01*
X19042372Y-11270397D01*
X19080467Y-11270397D01*
X19099515Y-11279921D01*
X19109038Y-11289445D01*
X19118562Y-11308493D01*
X19118562Y-11318017D01*
X19109038Y-11337064D01*
X19099515Y-11346588D01*
X19080467Y-11356112D01*
X19042372Y-11356112D01*
X19023324Y-11365636D01*
X19013800Y-11375159D01*
X19004277Y-11394207D01*
X19004277Y-11432302D01*
X19013800Y-11451350D01*
X19023324Y-11460874D01*
X19042372Y-11470397D01*
X19080467Y-11470397D01*
X19099515Y-11460874D01*
X19109038Y-11451350D01*
X19118562Y-11432302D01*
X19118562Y-11394207D01*
X19109038Y-11375159D01*
X19099515Y-11365636D01*
X19080467Y-11356112D01*
X19309038Y-11470397D02*
X19194753Y-11470397D01*
X19251896Y-11470397D02*
X19251896Y-11270397D01*
X19232848Y-11298969D01*
X19213800Y-11318017D01*
X19194753Y-11327540D01*
X19385229Y-11270397D02*
X19385229Y-11308493D01*
X19461419Y-11270397D02*
X19461419Y-11308493D01*
X19756657Y-11546588D02*
X19747134Y-11537064D01*
X19728086Y-11508493D01*
X19718562Y-11489445D01*
X19709038Y-11460874D01*
X19699515Y-11413255D01*
X19699515Y-11375159D01*
X19709038Y-11327540D01*
X19718562Y-11298969D01*
X19728086Y-11279921D01*
X19747134Y-11251350D01*
X19756657Y-11241826D01*
X19937610Y-11470397D02*
X19823324Y-11470397D01*
X19880467Y-11470397D02*
X19880467Y-11270397D01*
X19861419Y-11298969D01*
X19842372Y-11318017D01*
X19823324Y-11327540D01*
X20175705Y-11470397D02*
X20175705Y-11270397D01*
X20261419Y-11470397D02*
X20261419Y-11365636D01*
X20251896Y-11346588D01*
X20232848Y-11337064D01*
X20204277Y-11337064D01*
X20185229Y-11346588D01*
X20175705Y-11356112D01*
X20385229Y-11470397D02*
X20366181Y-11460874D01*
X20356657Y-11451350D01*
X20347134Y-11432302D01*
X20347134Y-11375159D01*
X20356657Y-11356112D01*
X20366181Y-11346588D01*
X20385229Y-11337064D01*
X20413800Y-11337064D01*
X20432848Y-11346588D01*
X20442372Y-11356112D01*
X20451896Y-11375159D01*
X20451896Y-11432302D01*
X20442372Y-11451350D01*
X20432848Y-11460874D01*
X20413800Y-11470397D01*
X20385229Y-11470397D01*
X20566181Y-11470397D02*
X20547134Y-11460874D01*
X20537610Y-11441826D01*
X20537610Y-11270397D01*
X20718562Y-11460874D02*
X20699515Y-11470397D01*
X20661419Y-11470397D01*
X20642372Y-11460874D01*
X20632848Y-11441826D01*
X20632848Y-11365636D01*
X20642372Y-11346588D01*
X20661419Y-11337064D01*
X20699515Y-11337064D01*
X20718562Y-11346588D01*
X20728086Y-11365636D01*
X20728086Y-11384683D01*
X20632848Y-11403731D01*
X20794753Y-11546588D02*
X20804277Y-11537064D01*
X20823324Y-11508493D01*
X20832848Y-11489445D01*
X20842372Y-11460874D01*
X20851896Y-11413255D01*
X20851896Y-11375159D01*
X20842372Y-11327540D01*
X20832848Y-11298969D01*
X20823324Y-11279921D01*
X20804277Y-11251350D01*
X20794753Y-11241826D01*
M02*
